<ttFont>
<head>
    <!-- Most of this table will be recalculated by the compiler -->
    <tableVersion value="1.0"/>
    <fontRevision value="1.0"/>
    <checkSumAdjustment value="0x807564da"/>
    <magicNumber value="0x5f0f3cf5"/>
    <flags value="00000000 00000011"/>
    <unitsPerEm value="1000"/>
    <created value="Sat Sep 28 20:18:31 2019"/>
    <modified value="Mon Dec  2 09:58:36 2019"/>
    <xMin value="-17"/>
    <yMin value="-285"/>
    <xMax value="848"/>
    <yMax value="718"/>
    <macStyle value="00000000 00000000"/>
    <lowestRecPPEM value="7"/>
    <fontDirectionHint value="2"/>
    <indexToLocFormat value="0"/>
    <glyphDataFormat value="0"/>
  </head>
    <TTGlyph name=".notdef" xMin="93" yMin="-285" xMax="410" yMax="715">
      <contour>
        <pt x="410" y="-285" on="1"/>
        <pt x="93" y="-285" on="1"/>
        <pt x="93" y="715" on="1"/>
        <pt x="410" y="715" on="1"/>
      </contour>
      <contour>
        <pt x="167" y="33" on="1"/>
        <pt x="167" y="-80" on="1"/>
        <pt x="333" y="-80" on="1"/>
        <pt x="333" y="33" on="1"/>
      </contour>
      <contour>
        <pt x="300" y="-47" on="1"/>
        <pt x="200" y="-47" on="1"/>
        <pt x="200" y="0" on="1"/>
        <pt x="300" y="0" on="1"/>
      </contour>
      <contour>
        <pt x="233" y="206" on="1"/>
        <pt x="233" y="150" on="1"/>
        <pt x="267" y="150" on="1"/>
        <pt x="267" y="173" on="1"/>
        <pt x="300" y="173" on="1"/>
        <pt x="300" y="126" on="1"/>
        <pt x="200" y="126" on="1"/>
        <pt x="200" y="206" on="1"/>
        <pt x="167" y="206" on="1"/>
        <pt x="167" y="93" on="1"/>
        <pt x="333" y="93" on="1"/>
        <pt x="333" y="206" on="1"/>
      </contour>
      <contour>
        <pt x="300" y="328" on="1"/>
        <pt x="300" y="262" on="1"/>
        <pt x="167" y="262" on="1"/>
        <pt x="167" y="228" on="1"/>
        <pt x="333" y="228" on="1"/>
        <pt x="333" y="328" on="1"/>
      </contour>
      <contour>
        <pt x="167" y="388" on="1"/>
        <pt x="167" y="355" on="1"/>
        <pt x="233" y="355" on="1"/>
        <pt x="233" y="318" on="1"/>
        <pt x="167" y="318" on="1"/>
        <pt x="167" y="285" on="1"/>
        <pt x="267" y="285" on="1"/>
        <pt x="267" y="355" on="1"/>
        <pt x="333" y="355" on="1"/>
        <pt x="333" y="388" on="1"/>
      </contour>
      <contour>
        <pt x="233" y="449" on="1"/>
        <pt x="200" y="449" on="1"/>
        <pt x="200" y="485" on="1"/>
        <pt x="233" y="485" on="1"/>
      </contour>
      <contour>
        <pt x="167" y="519" on="1"/>
        <pt x="167" y="415" on="1"/>
        <pt x="333" y="415" on="1"/>
        <pt x="333" y="449" on="1"/>
        <pt x="267" y="449" on="1"/>
        <pt x="267" y="519" on="1"/>
      </contour>
      <contour>
        <pt x="168" y="648" on="1"/>
        <pt x="168" y="615" on="1"/>
        <pt x="233" y="615" on="1"/>
        <pt x="233" y="578" on="1"/>
        <pt x="167" y="578" on="1"/>
        <pt x="167" y="545" on="1"/>
        <pt x="333" y="545" on="1"/>
        <pt x="333" y="578" on="1"/>
        <pt x="267" y="578" on="1"/>
        <pt x="267" y="615" on="1"/>
        <pt x="333" y="615" on="1"/>
        <pt x="333" y="648" on="1"/>
      </contour>
      <contour>
        <pt x="167" y="-103" on="1"/>
        <pt x="167" y="-136" on="1"/>
        <pt x="237" y="-136" on="1"/>
        <pt x="167" y="-183" on="1"/>
        <pt x="167" y="-216" on="1"/>
        <pt x="333" y="-216" on="1"/>
        <pt x="333" y="-183" on="1"/>
        <pt x="231" y="-183" on="1"/>
        <pt x="301" y="-136" on="1"/>
        <pt x="333" y="-136" on="1"/>
        <pt x="333" y="-103" on="1"/>
      </contour>
    </TTGlyph>
    <TTGlyph name="A" xMin="-3" yMin="0" xMax="645" yMax="646">
      <contour>
        <pt x="157" y="281" on="1"/>
        <pt x="462" y="281" on="1"/>
        <pt x="462" y="214" on="1"/>
        <pt x="159" y="214" on="1"/>
      </contour>
      <contour>
        <pt x="0" y="0" on="1"/>
        <pt x="-3" y="23" on="0"/>
        <pt x="26" y="42" on="0"/>
        <pt x="65" y="53" on="1"/>
        <pt x="71" y="55" on="1"/>
        <pt x="268" y="618" on="1"/>
        <pt x="299" y="626" on="1"/>
        <pt x="343" y="646" on="1"/>
        <pt x="571" y="56" on="1"/>
        <pt x="645" y="35" on="1"/>
        <pt x="643" y="12" on="0"/>
        <pt x="614" y="0" on="0"/>
        <pt x="571" y="0" on="1"/>
        <pt x="411" y="0" on="1"/>
        <pt x="408" y="23" on="0"/>
        <pt x="437" y="42" on="0"/>
        <pt x="476" y="53" on="1"/>
        <pt x="482" y="55" on="1"/>
        <pt x="300" y="554" on="1"/>
        <pt x="144" y="56" on="1"/>
        <pt x="218" y="35" on="1"/>
        <pt x="216" y="12" on="0"/>
        <pt x="187" y="0" on="0"/>
        <pt x="144" y="0" on="1"/>
      </contour>
    </TTGlyph>
    <TTGlyph name="D" xMin="46" yMin="-2" xMax="608" yMax="649">
      <contour>
        <pt x="49" y="0" on="1"/>
        <pt x="46" y="23" on="0"/>
        <pt x="75" y="42" on="0"/>
        <pt x="114" y="53" on="1"/>
        <pt x="120" y="55" on="1"/>
        <pt x="120" y="579" on="1"/>
        <pt x="49" y="573" on="1"/>
        <pt x="49" y="604" on="0"/>
        <pt x="99" y="632" on="0"/>
        <pt x="157" y="639" on="1"/>
        <pt x="239" y="649" on="0"/>
        <pt x="317" y="644" on="1"/>
        <pt x="606" y="621" on="0"/>
        <pt x="607" y="338" on="1"/>
        <pt x="608" y="177" on="0"/>
        <pt x="439" y="6" on="0"/>
        <pt x="279" y="0" on="1"/>
        <pt x="232" y="-2" on="0"/>
        <pt x="185" y="0" on="1"/>
        <pt x="138" y="0" on="1"/>
        <pt x="187" y="83" on="1"/>
        <pt x="169" y="28" on="1"/>
        <pt x="170" y="79" on="1"/>
        <pt x="211" y="70" on="0"/>
        <pt x="304" y="63" on="0"/>
        <pt x="353" y="71" on="1"/>
        <pt x="440" y="86" on="0"/>
        <pt x="518" y="205" on="0"/>
        <pt x="516" y="309" on="1"/>
        <pt x="515" y="411" on="0"/>
        <pt x="437" y="534" on="0"/>
        <pt x="327" y="586" on="0"/>
        <pt x="271" y="588" on="1"/>
        <pt x="212" y="590" on="0"/>
        <pt x="193" y="586" on="1"/>
        <pt x="193" y="0" on="1"/>
      </contour>
    </TTGlyph>
    <TTGlyph name="E" xMin="42" yMin="0" xMax="493" yMax="645">
      <contour>
        <pt x="153" y="645" on="1"/>
        <pt x="472" y="645" on="1"/>
        <pt x="468" y="572" on="1"/>
        <pt x="467" y="556" on="1"/>
        <pt x="465" y="524" on="0"/>
        <pt x="461" y="498" on="0"/>
        <pt x="448" y="484" on="0"/>
        <pt x="433" y="483" on="1"/>
        <pt x="412" y="590" on="1"/>
        <pt x="153" y="599" on="1"/>
      </contour>
      <contour>
        <pt x="376" y="410" on="1"/>
        <pt x="381" y="398" on="0"/>
        <pt x="382" y="264" on="0"/>
        <pt x="376" y="254" on="1"/>
        <pt x="368" y="240" on="0"/>
        <pt x="352" y="240" on="1"/>
        <pt x="334" y="304" on="1"/>
        <pt x="153" y="311" on="1"/>
        <pt x="153" y="350" on="1"/>
        <pt x="334" y="360" on="1"/>
        <pt x="352" y="424" on="1"/>
        <pt x="370" y="424" on="0"/>
      </contour>
      <contour>
        <pt x="460" y="177" on="1"/>
        <pt x="477" y="173" on="0"/>
        <pt x="490" y="159" on="0"/>
        <pt x="493" y="126" on="0"/>
        <pt x="492" y="83" on="1"/>
        <pt x="491" y="46" on="0"/>
        <pt x="469" y="10" on="0"/>
        <pt x="438" y="0" on="0"/>
        <pt x="414" y="0" on="1"/>
        <pt x="45" y="0" on="1"/>
        <pt x="42" y="23" on="0"/>
        <pt x="71" y="42" on="0"/>
        <pt x="110" y="53" on="1"/>
        <pt x="116" y="55" on="1"/>
        <pt x="116" y="590" on="1"/>
        <pt x="110" y="592" on="1"/>
        <pt x="71" y="603" on="0"/>
        <pt x="42" y="622" on="0"/>
        <pt x="45" y="645" on="1"/>
        <pt x="189" y="645" on="1"/>
        <pt x="189" y="49" on="1"/>
        <pt x="427" y="62" on="1"/>
      </contour>
    </TTGlyph>
    <TTGlyph name="H" xMin="42" yMin="0" xMax="636" yMax="645">
      <contour>
        <pt x="45" y="0" on="1"/>
        <pt x="42" y="23" on="0"/>
        <pt x="71" y="42" on="0"/>
        <pt x="110" y="53" on="1"/>
        <pt x="116" y="55" on="1"/>
        <pt x="116" y="590" on="1"/>
        <pt x="110" y="592" on="1"/>
        <pt x="71" y="603" on="0"/>
        <pt x="42" y="622" on="0"/>
        <pt x="45" y="645" on="1"/>
        <pt x="189" y="645" on="1"/>
        <pt x="232" y="645" on="0"/>
        <pt x="261" y="633" on="0"/>
        <pt x="263" y="610" on="1"/>
        <pt x="189" y="589" on="1"/>
        <pt x="189" y="56" on="1"/>
        <pt x="263" y="35" on="1"/>
        <pt x="261" y="12" on="0"/>
        <pt x="232" y="0" on="0"/>
        <pt x="189" y="0" on="1"/>
      </contour>
      <contour>
        <pt x="418" y="0" on="1"/>
        <pt x="415" y="23" on="0"/>
        <pt x="444" y="42" on="0"/>
        <pt x="483" y="53" on="1"/>
        <pt x="489" y="55" on="1"/>
        <pt x="489" y="590" on="1"/>
        <pt x="483" y="592" on="1"/>
        <pt x="444" y="603" on="0"/>
        <pt x="415" y="622" on="0"/>
        <pt x="418" y="645" on="1"/>
        <pt x="562" y="645" on="1"/>
        <pt x="605" y="645" on="0"/>
        <pt x="634" y="633" on="0"/>
        <pt x="636" y="610" on="1"/>
        <pt x="562" y="589" on="1"/>
        <pt x="562" y="56" on="1"/>
        <pt x="636" y="35" on="1"/>
        <pt x="634" y="12" on="0"/>
        <pt x="605" y="0" on="0"/>
        <pt x="562" y="0" on="1"/>
      </contour>
      <contour>
        <pt x="145" y="353" on="1"/>
        <pt x="540" y="353" on="1"/>
        <pt x="540" y="292" on="1"/>
        <pt x="147" y="292" on="1"/>
      </contour>
    </TTGlyph>
    <TTGlyph name="I" xMin="42" yMin="0" xMax="263" yMax="645">
      <contour>
        <pt x="45" y="0" on="1"/>
        <pt x="42" y="23" on="0"/>
        <pt x="71" y="42" on="0"/>
        <pt x="110" y="53" on="1"/>
        <pt x="116" y="55" on="1"/>
        <pt x="116" y="590" on="1"/>
        <pt x="110" y="592" on="1"/>
        <pt x="71" y="603" on="0"/>
        <pt x="42" y="622" on="0"/>
        <pt x="45" y="645" on="1"/>
        <pt x="189" y="645" on="1"/>
        <pt x="232" y="645" on="0"/>
        <pt x="261" y="633" on="0"/>
        <pt x="263" y="610" on="1"/>
        <pt x="189" y="589" on="1"/>
        <pt x="189" y="56" on="1"/>
        <pt x="263" y="35" on="1"/>
        <pt x="261" y="12" on="0"/>
        <pt x="232" y="0" on="0"/>
        <pt x="189" y="0" on="1"/>
      </contour>
    </TTGlyph>
    <TTGlyph name="L" xMin="42" yMin="0" xMax="504" yMax="645">
      <contour>
        <pt x="147" y="53" on="1"/>
        <pt x="446" y="63" on="1"/>
        <pt x="476" y="162" on="1"/>
        <pt x="490" y="160" on="0"/>
        <pt x="502" y="145" on="0"/>
        <pt x="504" y="118" on="0"/>
        <pt x="503" y="83" on="1"/>
        <pt x="502" y="77" on="0"/>
        <pt x="502" y="63" on="1"/>
        <pt x="500" y="0" on="1"/>
        <pt x="147" y="0" on="1"/>
      </contour>
      <contour>
        <pt x="189" y="645" on="1"/>
        <pt x="232" y="645" on="0"/>
        <pt x="261" y="633" on="0"/>
        <pt x="263" y="610" on="1"/>
        <pt x="189" y="589" on="1"/>
        <pt x="189" y="0" on="1"/>
        <pt x="45" y="0" on="1"/>
        <pt x="42" y="23" on="0"/>
        <pt x="71" y="42" on="0"/>
        <pt x="110" y="53" on="1"/>
        <pt x="116" y="55" on="1"/>
        <pt x="116" y="590" on="1"/>
        <pt x="110" y="592" on="1"/>
        <pt x="71" y="603" on="0"/>
        <pt x="42" y="622" on="0"/>
        <pt x="45" y="645" on="1"/>
      </contour>
    </TTGlyph>
    <TTGlyph name="M" xMin="38" yMin="0" xMax="771" yMax="645">
      <contour>
        <pt x="431" y="16" on="1"/>
        <pt x="378" y="10" on="1"/>
        <pt x="144" y="645" on="1"/>
        <pt x="214" y="645" on="1"/>
        <pt x="434" y="80" on="1"/>
        <pt x="402" y="79" on="1"/>
        <pt x="582" y="645" on="1"/>
        <pt x="654" y="645" on="1"/>
      </contour>
      <contour>
        <pt x="253" y="35" on="1"/>
        <pt x="252" y="18" on="0"/>
        <pt x="237" y="3" on="0"/>
        <pt x="210" y="0" on="0"/>
        <pt x="179" y="0" on="1"/>
        <pt x="41" y="0" on="1"/>
        <pt x="38" y="23" on="0"/>
        <pt x="67" y="42" on="0"/>
        <pt x="106" y="53" on="1"/>
        <pt x="112" y="55" on="1"/>
        <pt x="142" y="590" on="1"/>
        <pt x="136" y="592" on="1"/>
        <pt x="97" y="603" on="0"/>
        <pt x="68" y="622" on="0"/>
        <pt x="71" y="645" on="1"/>
        <pt x="209" y="645" on="1"/>
        <pt x="179" y="56" on="1"/>
      </contour>
      <contour>
        <pt x="771" y="35" on="1"/>
        <pt x="769" y="12" on="0"/>
        <pt x="740" y="0" on="0"/>
        <pt x="697" y="0" on="1"/>
        <pt x="553" y="0" on="1"/>
        <pt x="550" y="23" on="0"/>
        <pt x="579" y="42" on="0"/>
        <pt x="618" y="53" on="1"/>
        <pt x="624" y="55" on="1"/>
        <pt x="594" y="645" on="1"/>
        <pt x="738" y="645" on="1"/>
        <pt x="741" y="622" on="0"/>
        <pt x="712" y="603" on="0"/>
        <pt x="673" y="592" on="1"/>
        <pt x="667" y="590" on="1"/>
        <pt x="697" y="56" on="1"/>
      </contour>
    </TTGlyph>
    <TTGlyph name="O" xMin="0" yMin="0" xMax="567" yMax="645">
      <contour>
        <pt x="267" y="0" on="1"/>
        <pt x="195" y="0" on="0"/>
        <pt x="72" y="76" on="0"/>
        <pt x="0" y="208" on="0"/>
        <pt x="0" y="290" on="1"/>
        <pt x="0" y="389" on="0"/>
        <pt x="73" y="551" on="0"/>
        <pt x="209" y="645" on="0"/>
        <pt x="300" y="645" on="1"/>
        <pt x="374" y="645" on="0"/>
        <pt x="496" y="574" on="0"/>
        <pt x="567" y="433" on="0"/>
        <pt x="567" y="332" on="1"/>
        <pt x="567" y="244" on="0"/>
        <pt x="494" y="92" on="0"/>
        <pt x="357" y="0" on="0"/>
      </contour>
      <contour>
        <pt x="301" y="69" on="1"/>
        <pt x="359" y="69" on="0"/>
        <pt x="440" y="140" on="0"/>
        <pt x="481" y="249" on="0"/>
        <pt x="481" y="303" on="1"/>
        <pt x="481" y="381" on="0"/>
        <pt x="424" y="506" on="0"/>
        <pt x="325" y="576" on="0"/>
        <pt x="263" y="576" on="1"/>
        <pt x="205" y="576" on="0"/>
        <pt x="125" y="502" on="0"/>
        <pt x="86" y="384" on="0"/>
        <pt x="86" y="319" on="1"/>
        <pt x="86" y="252" on="0"/>
        <pt x="146" y="137" on="0"/>
        <pt x="245" y="69" on="0"/>
      </contour>
    </TTGlyph>
    <TTGlyph name="P" xMin="17" yMin="0" xMax="481" yMax="653">
      <contour>
        <pt x="308" y="649" on="1"/>
        <pt x="382" y="641" on="0"/>
        <pt x="474" y="555" on="0"/>
        <pt x="478" y="478" on="1"/>
        <pt x="481" y="416" on="0"/>
        <pt x="436" y="310" on="0"/>
        <pt x="332" y="244" on="0"/>
        <pt x="250" y="244" on="1"/>
        <pt x="212" y="244" on="0"/>
        <pt x="126" y="254" on="0"/>
        <pt x="109" y="263" on="1"/>
        <pt x="158" y="317" on="1"/>
        <pt x="140" y="272" on="1"/>
        <pt x="152" y="318" on="1"/>
        <pt x="177" y="308" on="0"/>
        <pt x="237" y="299" on="0"/>
        <pt x="279" y="299" on="1"/>
        <pt x="321" y="299" on="0"/>
        <pt x="374" y="352" on="0"/>
        <pt x="397" y="426" on="0"/>
        <pt x="395" y="457" on="1"/>
        <pt x="390" y="530" on="0"/>
        <pt x="323" y="593" on="0"/>
        <pt x="255" y="597" on="1"/>
        <pt x="227" y="598" on="0"/>
        <pt x="174" y="595" on="0"/>
        <pt x="164" y="591" on="1"/>
        <pt x="164" y="56" on="1"/>
        <pt x="238" y="35" on="1"/>
        <pt x="236" y="12" on="0"/>
        <pt x="207" y="0" on="0"/>
        <pt x="164" y="0" on="1"/>
        <pt x="20" y="0" on="1"/>
        <pt x="17" y="23" on="0"/>
        <pt x="46" y="42" on="0"/>
        <pt x="85" y="53" on="1"/>
        <pt x="91" y="55" on="1"/>
        <pt x="91" y="584" on="1"/>
        <pt x="20" y="578" on="1"/>
        <pt x="20" y="609" on="0"/>
        <pt x="70" y="637" on="0"/>
        <pt x="128" y="644" on="1"/>
        <pt x="169" y="649" on="0"/>
        <pt x="269" y="653" on="0"/>
      </contour>
    </TTGlyph>
    <TTGlyph name="R" xMin="45" yMin="0" xMax="603" yMax="652">
      <contour>
        <pt x="603" y="39" on="1"/>
        <pt x="603" y="21" on="0"/>
        <pt x="568" y="0" on="0"/>
        <pt x="542" y="0" on="1"/>
        <pt x="508" y="0" on="0"/>
        <pt x="461" y="36" on="0"/>
        <pt x="414" y="113" on="0"/>
        <pt x="367" y="202" on="1"/>
        <pt x="324" y="282" on="1"/>
        <pt x="291" y="272" on="0"/>
        <pt x="248" y="272" on="1"/>
        <pt x="224" y="272" on="0"/>
        <pt x="140" y="282" on="0"/>
        <pt x="122" y="286" on="1"/>
        <pt x="192" y="322" on="1"/>
        <pt x="192" y="56" on="1"/>
        <pt x="266" y="35" on="1"/>
        <pt x="264" y="12" on="0"/>
        <pt x="235" y="0" on="0"/>
        <pt x="192" y="0" on="1"/>
        <pt x="48" y="0" on="1"/>
        <pt x="45" y="23" on="0"/>
        <pt x="74" y="42" on="0"/>
        <pt x="113" y="53" on="1"/>
        <pt x="119" y="55" on="1"/>
        <pt x="120" y="584" on="1"/>
        <pt x="49" y="578" on="1"/>
        <pt x="49" y="609" on="0"/>
        <pt x="104" y="637" on="0"/>
        <pt x="162" y="644" on="1"/>
        <pt x="222" y="652" on="0"/>
        <pt x="310" y="644" on="1"/>
        <pt x="400" y="637" on="0"/>
        <pt x="486" y="564" on="0"/>
        <pt x="486" y="498" on="1"/>
        <pt x="486" y="432" on="0"/>
        <pt x="424" y="324" on="0"/>
        <pt x="363" y="297" on="1"/>
        <pt x="366" y="329" on="1"/>
        <pt x="404" y="273" on="0"/>
        <pt x="445" y="206" on="1"/>
        <pt x="484" y="142" on="0"/>
        <pt x="529" y="78" on="0"/>
        <pt x="576" y="39" on="0"/>
      </contour>
      <contour>
        <pt x="143" y="354" on="1"/>
        <pt x="158" y="339" on="0"/>
        <pt x="227" y="327" on="0"/>
        <pt x="277" y="327" on="1"/>
        <pt x="349" y="327" on="0"/>
        <pt x="406" y="418" on="0"/>
        <pt x="406" y="477" on="1"/>
        <pt x="406" y="538" on="0"/>
        <pt x="333" y="592" on="0"/>
        <pt x="250" y="592" on="1"/>
        <pt x="214" y="592" on="0"/>
        <pt x="192" y="588" on="1"/>
        <pt x="192" y="301" on="1"/>
      </contour>
    </TTGlyph>
    <TTGlyph name="S" xMin="69" yMin="0" xMax="483" yMax="645">
      <contour>
        <pt x="82" y="472" on="1"/>
        <pt x="82" y="541" on="0"/>
        <pt x="159" y="619" on="0"/>
        <pt x="250" y="645" on="0"/>
        <pt x="281" y="645" on="1"/>
        <pt x="340" y="645" on="0"/>
        <pt x="439" y="598" on="0"/>
        <pt x="458" y="566" on="1"/>
        <pt x="458" y="536" on="1"/>
        <pt x="458" y="498" on="0"/>
        <pt x="442" y="461" on="0"/>
        <pt x="419" y="459" on="1"/>
        <pt x="398" y="526" on="1"/>
        <pt x="391" y="534" on="1"/>
        <pt x="371" y="557" on="0"/>
        <pt x="316" y="588" on="0"/>
        <pt x="266" y="588" on="1"/>
        <pt x="229" y="588" on="0"/>
        <pt x="166" y="548" on="0"/>
        <pt x="166" y="501" on="1"/>
        <pt x="166" y="469" on="0"/>
        <pt x="206" y="419" on="0"/>
        <pt x="265" y="382" on="0"/>
        <pt x="316" y="356" on="1"/>
        <pt x="371" y="328" on="0"/>
        <pt x="437" y="285" on="0"/>
        <pt x="483" y="225" on="0"/>
        <pt x="483" y="186" on="1"/>
        <pt x="483" y="130" on="0"/>
        <pt x="421" y="45" on="0"/>
        <pt x="320" y="0" on="0"/>
        <pt x="262" y="0" on="1"/>
        <pt x="226" y="0" on="0"/>
        <pt x="144" y="26" on="0"/>
        <pt x="79" y="60" on="0"/>
        <pt x="69" y="69" on="1"/>
        <pt x="69" y="129" on="1"/>
        <pt x="69" y="174" on="0"/>
        <pt x="81" y="204" on="0"/>
        <pt x="105" y="206" on="1"/>
        <pt x="130" y="134" on="1"/>
        <pt x="150" y="110" on="0"/>
        <pt x="228" y="60" on="0"/>
        <pt x="277" y="60" on="1"/>
        <pt x="327" y="60" on="0"/>
        <pt x="389" y="116" on="0"/>
        <pt x="389" y="156" on="1"/>
        <pt x="389" y="192" on="0"/>
        <pt x="350" y="244" on="0"/>
        <pt x="292" y="279" on="0"/>
        <pt x="243" y="302" on="1"/>
        <pt x="190" y="327" on="0"/>
        <pt x="126" y="366" on="0"/>
        <pt x="82" y="428" on="0"/>
      </contour>
    </TTGlyph>
    <TTGlyph name="T" xMin="52" yMin="0" xMax="568" yMax="645">
      <contour>
        <pt x="345" y="56" on="1"/>
        <pt x="419" y="35" on="1"/>
        <pt x="417" y="12" on="0"/>
        <pt x="388" y="0" on="0"/>
        <pt x="345" y="0" on="1"/>
        <pt x="201" y="0" on="1"/>
        <pt x="198" y="23" on="0"/>
        <pt x="227" y="42" on="0"/>
        <pt x="266" y="53" on="1"/>
        <pt x="272" y="55" on="1"/>
        <pt x="272" y="621" on="1"/>
        <pt x="345" y="621" on="1"/>
      </contour>
      <contour>
        <pt x="566" y="582" on="1"/>
        <pt x="566" y="568" on="0"/>
        <pt x="567" y="562" on="1"/>
        <pt x="568" y="527" on="0"/>
        <pt x="566" y="500" on="0"/>
        <pt x="554" y="485" on="0"/>
        <pt x="540" y="483" on="1"/>
        <pt x="510" y="582" on="1"/>
        <pt x="310" y="586" on="1"/>
        <pt x="110" y="582" on="1"/>
        <pt x="80" y="483" on="1"/>
        <pt x="66" y="485" on="0"/>
        <pt x="54" y="500" on="0"/>
        <pt x="52" y="527" on="0"/>
        <pt x="53" y="562" on="1"/>
        <pt x="54" y="568" on="0"/>
        <pt x="54" y="582" on="1"/>
        <pt x="56" y="645" on="1"/>
        <pt x="310" y="639" on="1"/>
        <pt x="564" y="645" on="1"/>
      </contour>
    </TTGlyph>
    <TTGlyph name="a" xMin="43" yMin="-2" xMax="459" yMax="481">
      <contour>
        <pt x="153" y="0" on="1"/>
        <pt x="122" y="0" on="0"/>
        <pt x="72" y="28" on="0"/>
        <pt x="43" y="75" on="0"/>
        <pt x="43" y="104" on="1"/>
        <pt x="43" y="154" on="0"/>
        <pt x="100" y="236" on="0"/>
        <pt x="233" y="286" on="0"/>
        <pt x="342" y="286" on="1"/>
        <pt x="351" y="232" on="1"/>
        <pt x="274" y="232" on="0"/>
        <pt x="169" y="214" on="0"/>
        <pt x="110" y="167" on="0"/>
        <pt x="110" y="127" on="1"/>
        <pt x="110" y="99" on="0"/>
        <pt x="149" y="69" on="0"/>
        <pt x="183" y="69" on="1"/>
        <pt x="209" y="69" on="0"/>
        <pt x="304" y="95" on="0"/>
        <pt x="326" y="109" on="1"/>
        <pt x="325" y="63" on="1"/>
        <pt x="292" y="37" on="0"/>
        <pt x="195" y="0" on="0"/>
      </contour>
      <contour>
        <pt x="61" y="390" on="1"/>
        <pt x="61" y="400" on="0"/>
        <pt x="109" y="446" on="0"/>
        <pt x="184" y="481" on="0"/>
        <pt x="226" y="481" on="1"/>
        <pt x="298" y="481" on="0"/>
        <pt x="382" y="397" on="0"/>
        <pt x="382" y="317" on="1"/>
        <pt x="382" y="113" on="1"/>
        <pt x="382" y="63" on="0"/>
        <pt x="408" y="63" on="1"/>
        <pt x="416" y="63" on="0"/>
        <pt x="435" y="71" on="0"/>
        <pt x="443" y="76" on="1"/>
        <pt x="451" y="73" on="0"/>
        <pt x="459" y="63" on="0"/>
        <pt x="459" y="56" on="1"/>
        <pt x="459" y="45" on="0"/>
        <pt x="449" y="34" on="1"/>
        <pt x="437" y="20" on="0"/>
        <pt x="398" y="-2" on="0"/>
        <pt x="378" y="-2" on="1"/>
        <pt x="345" y="-2" on="0"/>
        <pt x="309" y="47" on="0"/>
        <pt x="309" y="81" on="1"/>
        <pt x="309" y="314" on="1"/>
        <pt x="309" y="362" on="0"/>
        <pt x="249" y="421" on="0"/>
        <pt x="202" y="421" on="1"/>
        <pt x="159" y="421" on="0"/>
        <pt x="129" y="397" on="0"/>
        <pt x="129" y="375" on="1"/>
        <pt x="129" y="367" on="0"/>
        <pt x="132" y="359" on="1"/>
        <pt x="134" y="349" on="0"/>
        <pt x="134" y="345" on="1"/>
        <pt x="134" y="329" on="0"/>
        <pt x="119" y="315" on="0"/>
        <pt x="106" y="315" on="1"/>
        <pt x="88" y="315" on="0"/>
        <pt x="61" y="364" on="0"/>
      </contour>
    </TTGlyph>
    <TTGlyph name="b" xMin="3" yMin="-3" xMax="494" yMax="715">
      <contour>
        <pt x="81" y="620" on="1"/>
        <pt x="10" y="637" on="1"/>
        <pt x="3" y="652" on="0"/>
        <pt x="23" y="678" on="0"/>
        <pt x="46" y="692" on="1"/>
        <pt x="63" y="702" on="0"/>
        <pt x="105" y="715" on="0"/>
        <pt x="122" y="715" on="1"/>
        <pt x="137" y="715" on="0"/>
        <pt x="154" y="693" on="0"/>
        <pt x="154" y="665" on="1"/>
        <pt x="154" y="70" on="1"/>
        <pt x="81" y="70" on="1"/>
      </contour>
      <contour>
        <pt x="115" y="143" on="1"/>
        <pt x="131" y="102" on="0"/>
        <pt x="214" y="58" on="0"/>
        <pt x="271" y="58" on="1"/>
        <pt x="319" y="58" on="0"/>
        <pt x="383" y="108" on="0"/>
        <pt x="414" y="193" on="0"/>
        <pt x="414" y="248" on="1"/>
        <pt x="414" y="304" on="0"/>
        <pt x="380" y="376" on="0"/>
        <pt x="323" y="410" on="0"/>
        <pt x="287" y="410" on="1"/>
        <pt x="258" y="410" on="0"/>
        <pt x="160" y="376" on="0"/>
        <pt x="137" y="358" on="1"/>
        <pt x="137" y="406" on="1"/>
        <pt x="138" y="407" on="0"/>
        <pt x="142" y="410" on="0"/>
        <pt x="143" y="411" on="1"/>
        <pt x="171" y="435" on="0"/>
        <pt x="275" y="480" on="0"/>
        <pt x="310" y="480" on="1"/>
        <pt x="396" y="480" on="0"/>
        <pt x="494" y="370" on="0"/>
        <pt x="494" y="269" on="1"/>
        <pt x="494" y="185" on="0"/>
        <pt x="427" y="62" on="0"/>
        <pt x="308" y="-3" on="0"/>
        <pt x="232" y="-3" on="1"/>
        <pt x="185" y="-3" on="0"/>
        <pt x="103" y="22" on="0"/>
        <pt x="81" y="49" on="1"/>
        <pt x="81" y="130" on="1"/>
      </contour>
    </TTGlyph>
    <TTGlyph name="c" xMin="54" yMin="-1" xMax="419" yMax="481">
      <contour>
        <pt x="54" y="213" on="1"/>
        <pt x="54" y="295" on="0"/>
        <pt x="104" y="416" on="0"/>
        <pt x="200" y="481" on="0"/>
        <pt x="267" y="481" on="1"/>
        <pt x="306" y="481" on="0"/>
        <pt x="364" y="456" on="0"/>
        <pt x="396" y="417" on="0"/>
        <pt x="396" y="397" on="1"/>
        <pt x="396" y="381" on="0"/>
        <pt x="374" y="346" on="0"/>
        <pt x="359" y="342" on="1"/>
        <pt x="339" y="377" on="0"/>
        <pt x="283" y="420" on="0"/>
        <pt x="245" y="420" on="1"/>
        <pt x="219" y="420" on="0"/>
        <pt x="164" y="388" on="0"/>
        <pt x="125" y="314" on="0"/>
        <pt x="125" y="255" on="1"/>
        <pt x="125" y="192" on="0"/>
        <pt x="162" y="110" on="0"/>
        <pt x="230" y="70" on="0"/>
        <pt x="278" y="70" on="1"/>
        <pt x="302" y="70" on="0"/>
        <pt x="358" y="89" on="0"/>
        <pt x="391" y="106" on="1"/>
        <pt x="391" y="106" on="0"/>
        <pt x="405" y="113" on="1"/>
        <pt x="419" y="104" on="0"/>
        <pt x="419" y="91" on="1"/>
        <pt x="419" y="82" on="0"/>
        <pt x="410" y="71" on="1"/>
        <pt x="388" y="46" on="0"/>
        <pt x="294" y="-1" on="0"/>
        <pt x="247" y="-1" on="1"/>
        <pt x="158" y="-1" on="0"/>
        <pt x="54" y="113" on="0"/>
      </contour>
    </TTGlyph>
    <TTGlyph name="colon" xMin="98" yMin="0" xMax="196" yMax="443">
      <contour>
        <pt x="147" y="343" on="1"/>
        <pt x="121" y="343" on="0"/>
        <pt x="98" y="367" on="0"/>
        <pt x="98" y="393" on="1"/>
        <pt x="98" y="414" on="0"/>
        <pt x="126" y="443" on="0"/>
        <pt x="147" y="443" on="1"/>
        <pt x="170" y="443" on="0"/>
        <pt x="196" y="416" on="0"/>
        <pt x="196" y="393" on="1"/>
        <pt x="196" y="372" on="0"/>
        <pt x="168" y="343" on="0"/>
      </contour>
      <contour>
        <pt x="147" y="0" on="1"/>
        <pt x="121" y="0" on="0"/>
        <pt x="98" y="24" on="0"/>
        <pt x="98" y="50" on="1"/>
        <pt x="98" y="71" on="0"/>
        <pt x="126" y="100" on="0"/>
        <pt x="147" y="100" on="1"/>
        <pt x="170" y="100" on="0"/>
        <pt x="196" y="73" on="0"/>
        <pt x="196" y="50" on="1"/>
        <pt x="196" y="29" on="0"/>
        <pt x="168" y="0" on="0"/>
      </contour>
    </TTGlyph>
    <TTGlyph name="comma" xMin="86" yMin="-116" xMax="201" yMax="100">
      <contour>
        <pt x="122" y="-116" on="1"/>
        <pt x="114" y="-116" on="0"/>
        <pt x="99" y="-107" on="0"/>
        <pt x="97" y="-102" on="1"/>
        <pt x="115" y="-86" on="0"/>
        <pt x="134" y="-47" on="0"/>
        <pt x="134" y="-30" on="1"/>
        <pt x="134" y="-9" on="0"/>
        <pt x="111" y="20" on="0"/>
        <pt x="86" y="34" on="1"/>
        <pt x="86" y="62" on="0"/>
        <pt x="119" y="100" on="0"/>
        <pt x="145" y="100" on="1"/>
        <pt x="172" y="100" on="0"/>
        <pt x="201" y="61" on="0"/>
        <pt x="201" y="33" on="1"/>
        <pt x="201" y="-5" on="0"/>
        <pt x="171" y="-73" on="0"/>
        <pt x="133" y="-116" on="0"/>
      </contour>
    </TTGlyph>
    <TTGlyph name="d" xMin="51" yMin="0" xMax="525" yMax="715">
      <contour>
        <pt x="417" y="334" on="1"/>
        <pt x="401" y="375" on="0"/>
        <pt x="338" y="409" on="0"/>
        <pt x="282" y="409" on="1"/>
        <pt x="212" y="409" on="0"/>
        <pt x="128" y="309" on="0"/>
        <pt x="128" y="229" on="1"/>
        <pt x="128" y="172" on="0"/>
        <pt x="159" y="100" on="0"/>
        <pt x="216" y="67" on="0"/>
        <pt x="258" y="67" on="1"/>
        <pt x="286" y="67" on="0"/>
        <pt x="373" y="92" on="0"/>
        <pt x="395" y="109" on="1"/>
        <pt x="394" y="61" on="1"/>
        <pt x="370" y="38" on="0"/>
        <pt x="268" y="0" on="0"/>
        <pt x="230" y="0" on="1"/>
        <pt x="176" y="0" on="0"/>
        <pt x="96" y="47" on="0"/>
        <pt x="51" y="141" on="0"/>
        <pt x="51" y="208" on="1"/>
        <pt x="51" y="291" on="0"/>
        <pt x="124" y="414" on="0"/>
        <pt x="247" y="480" on="0"/>
        <pt x="321" y="480" on="1"/>
        <pt x="353" y="480" on="0"/>
        <pt x="389" y="471" on="0"/>
        <pt x="413" y="450" on="0"/>
        <pt x="431" y="428" on="1"/>
        <pt x="431" y="347" on="1"/>
      </contour>
      <contour>
        <pt x="307" y="637" on="1"/>
        <pt x="302" y="650" on="0"/>
        <pt x="313" y="674" on="0"/>
        <pt x="343" y="692" on="1"/>
        <pt x="360" y="702" on="0"/>
        <pt x="402" y="715" on="0"/>
        <pt x="419" y="715" on="1"/>
        <pt x="434" y="715" on="0"/>
        <pt x="451" y="693" on="0"/>
        <pt x="451" y="665" on="1"/>
        <pt x="451" y="56" on="1"/>
        <pt x="525" y="35" on="1"/>
        <pt x="523" y="12" on="0"/>
        <pt x="494" y="0" on="0"/>
        <pt x="451" y="0" on="1"/>
        <pt x="378" y="0" on="1"/>
        <pt x="378" y="620" on="1"/>
      </contour>
    </TTGlyph>
    <TTGlyph name="e" xMin="24" yMin="-1" xMax="406" yMax="481">
      <contour>
        <pt x="334" y="302" on="1"/>
        <pt x="326" y="362" on="0"/>
        <pt x="259" y="413" on="0"/>
        <pt x="209" y="411" on="1"/>
        <pt x="165" y="409" on="0"/>
        <pt x="94" y="341" on="0"/>
        <pt x="94" y="264" on="1"/>
        <pt x="94" y="169" on="0"/>
        <pt x="171" y="70" on="0"/>
        <pt x="248" y="70" on="1"/>
        <pt x="285" y="70" on="0"/>
        <pt x="351" y="93" on="0"/>
        <pt x="390" y="113" on="1"/>
        <pt x="401" y="107" on="0"/>
        <pt x="406" y="83" on="0"/>
        <pt x="395" y="71" on="1"/>
        <pt x="381" y="55" on="0"/>
        <pt x="328" y="22" on="0"/>
        <pt x="256" y="-1" on="0"/>
        <pt x="217" y="-1" on="1"/>
        <pt x="157" y="-1" on="0"/>
        <pt x="69" y="55" on="0"/>
        <pt x="24" y="152" on="0"/>
        <pt x="24" y="213" on="1"/>
        <pt x="24" y="287" on="0"/>
        <pt x="75" y="410" on="0"/>
        <pt x="171" y="481" on="0"/>
        <pt x="237" y="481" on="1"/>
        <pt x="297" y="481" on="0"/>
        <pt x="372" y="423" on="0"/>
        <pt x="404" y="339" on="0"/>
        <pt x="404" y="297" on="1"/>
        <pt x="404" y="273" on="0"/>
        <pt x="385" y="254" on="0"/>
        <pt x="360" y="251" on="1"/>
        <pt x="85" y="212" on="1"/>
        <pt x="78" y="274" on="1"/>
      </contour>
    </TTGlyph>
    <TTGlyph name="exclam" xMin="97" yMin="0" xMax="216" yMax="718">
      <contour>
        <pt x="132" y="223" on="1"/>
        <pt x="127" y="232" on="0"/>
        <pt x="122" y="312" on="0"/>
        <pt x="120" y="361" on="1"/>
        <pt x="118" y="429" on="0"/>
        <pt x="116" y="462" on="1"/>
        <pt x="112" y="543" on="0"/>
        <pt x="103" y="613" on="1"/>
        <pt x="100" y="628" on="0"/>
        <pt x="98" y="656" on="1"/>
        <pt x="97" y="675" on="0"/>
        <pt x="143" y="710" on="0"/>
        <pt x="198" y="718" on="0"/>
        <pt x="209" y="702" on="1"/>
        <pt x="216" y="692" on="0"/>
        <pt x="214" y="660" on="0"/>
        <pt x="207" y="629" on="1"/>
        <pt x="196" y="576" on="0"/>
        <pt x="192" y="538" on="1"/>
        <pt x="183" y="464" on="0"/>
        <pt x="174" y="334" on="1"/>
        <pt x="171" y="292" on="0"/>
        <pt x="165" y="228" on="0"/>
        <pt x="162" y="223" on="1"/>
        <pt x="156" y="213" on="0"/>
        <pt x="137" y="213" on="0"/>
      </contour>
      <contour>
        <pt x="150" y="0" on="1"/>
        <pt x="122" y="0" on="0"/>
        <pt x="99" y="24" on="0"/>
        <pt x="99" y="52" on="1"/>
        <pt x="99" y="74" on="0"/>
        <pt x="128" y="104" on="0"/>
        <pt x="150" y="104" on="1"/>
        <pt x="175" y="104" on="0"/>
        <pt x="201" y="77" on="0"/>
        <pt x="201" y="52" on="1"/>
        <pt x="201" y="29" on="0"/>
        <pt x="172" y="0" on="0"/>
      </contour>
    </TTGlyph>
    <TTGlyph name="f" xMin="21" yMin="0" xMax="386" yMax="715">
      <contour>
        <pt x="178" y="56" on="1"/>
        <pt x="252" y="35" on="1"/>
        <pt x="250" y="12" on="0"/>
        <pt x="221" y="0" on="0"/>
        <pt x="178" y="0" on="1"/>
        <pt x="34" y="0" on="1"/>
        <pt x="31" y="23" on="0"/>
        <pt x="60" y="42" on="0"/>
        <pt x="99" y="53" on="1"/>
        <pt x="105" y="55" on="1"/>
        <pt x="105" y="506" on="1"/>
        <pt x="178" y="506" on="1"/>
      </contour>
      <contour>
        <pt x="105" y="386" on="1"/>
        <pt x="21" y="393" on="1"/>
        <pt x="23" y="417" on="0"/>
        <pt x="57" y="437" on="0"/>
        <pt x="105" y="442" on="1"/>
        <pt x="295" y="448" on="1"/>
        <pt x="302" y="411" on="0"/>
        <pt x="239" y="385" on="0"/>
        <pt x="178" y="380" on="1"/>
        <pt x="178" y="350" on="1"/>
        <pt x="105" y="360" on="1"/>
      </contour>
      <contour>
        <pt x="105" y="506" on="1"/>
        <pt x="107" y="608" on="0"/>
        <pt x="193" y="715" on="0"/>
        <pt x="257" y="715" on="1"/>
        <pt x="295" y="715" on="0"/>
        <pt x="354" y="691" on="0"/>
        <pt x="386" y="656" on="0"/>
        <pt x="386" y="641" on="1"/>
        <pt x="386" y="625" on="0"/>
        <pt x="364" y="590" on="0"/>
        <pt x="349" y="586" on="1"/>
        <pt x="335" y="610" on="0"/>
        <pt x="310" y="643" on="0"/>
        <pt x="276" y="664" on="0"/>
        <pt x="255" y="664" on="1"/>
        <pt x="228" y="664" on="0"/>
        <pt x="181" y="604" on="0"/>
        <pt x="178" y="506" on="1"/>
      </contour>
    </TTGlyph>
    <TTGlyph name="g" xMin="1" yMin="-285" xMax="518" yMax="475">
      <contour>
        <pt x="245" y="475" on="1"/>
        <pt x="285" y="475" on="0"/>
        <pt x="357" y="437" on="0"/>
        <pt x="402" y="372" on="0"/>
        <pt x="402" y="335" on="1"/>
        <pt x="402" y="284" on="0"/>
        <pt x="351" y="196" on="0"/>
        <pt x="264" y="143" on="0"/>
        <pt x="212" y="143" on="1"/>
        <pt x="175" y="143" on="0"/>
        <pt x="102" y="186" on="0"/>
        <pt x="55" y="256" on="0"/>
        <pt x="55" y="293" on="1"/>
        <pt x="55" y="345" on="0"/>
        <pt x="102" y="427" on="0"/>
        <pt x="188" y="475" on="0"/>
      </contour>
      <contour>
        <pt x="244" y="207" on="1"/>
        <pt x="292" y="207" on="0"/>
        <pt x="334" y="264" on="0"/>
        <pt x="334" y="306" on="1"/>
        <pt x="334" y="338" on="0"/>
        <pt x="299" y="391" on="0"/>
        <pt x="242" y="421" on="0"/>
        <pt x="210" y="421" on="1"/>
        <pt x="182" y="421" on="0"/>
        <pt x="143" y="389" on="0"/>
        <pt x="123" y="343" on="0"/>
        <pt x="123" y="322" on="1"/>
        <pt x="123" y="290" on="0"/>
        <pt x="156" y="237" on="0"/>
        <pt x="212" y="207" on="0"/>
      </contour>
      <contour>
        <pt x="185" y="152" on="1"/>
        <pt x="165" y="144" on="0"/>
        <pt x="136" y="123" on="0"/>
        <pt x="136" y="110" on="1"/>
        <pt x="136" y="71" on="0"/>
        <pt x="223" y="51" on="0"/>
        <pt x="297" y="51" on="1"/>
        <pt x="306" y="51" on="1"/>
        <pt x="391" y="51" on="0"/>
        <pt x="465" y="-15" on="0"/>
        <pt x="465" y="-65" on="1"/>
        <pt x="465" y="-115" on="0"/>
        <pt x="406" y="-217" on="0"/>
        <pt x="291" y="-285" on="0"/>
        <pt x="210" y="-285" on="1"/>
        <pt x="165" y="-285" on="0"/>
        <pt x="69" y="-255" on="0"/>
        <pt x="3" y="-189" on="0"/>
        <pt x="2" y="-139" on="1"/>
        <pt x="1" y="-101" on="0"/>
        <pt x="76" y="-10" on="0"/>
        <pt x="129" y="17" on="1"/>
        <pt x="164" y="0" on="1"/>
        <pt x="158" y="-4" on="1"/>
        <pt x="127" y="-26" on="0"/>
        <pt x="93" y="-65" on="0"/>
        <pt x="81" y="-101" on="0"/>
        <pt x="81" y="-123" on="1"/>
        <pt x="81" y="-151" on="0"/>
        <pt x="123" y="-192" on="0"/>
        <pt x="198" y="-214" on="0"/>
        <pt x="247" y="-214" on="1"/>
        <pt x="296" y="-214" on="0"/>
        <pt x="365" y="-181" on="0"/>
        <pt x="401" y="-128" on="0"/>
        <pt x="401" y="-99" on="1"/>
        <pt x="401" y="-58" on="0"/>
        <pt x="345" y="-17" on="0"/>
        <pt x="281" y="-17" on="1"/>
        <pt x="166" y="-17" on="0"/>
        <pt x="68" y="29" on="0"/>
        <pt x="68" y="81" on="1"/>
        <pt x="68" y="111" on="0"/>
        <pt x="105" y="147" on="0"/>
        <pt x="138" y="166" on="1"/>
        <pt x="142" y="168" on="0"/>
        <pt x="149" y="172" on="0"/>
        <pt x="152" y="174" on="1"/>
      </contour>
      <contour>
        <pt x="345" y="423" on="1"/>
        <pt x="347" y="424" on="0"/>
        <pt x="350" y="426" on="0"/>
        <pt x="351" y="428" on="1"/>
        <pt x="370" y="443" on="0"/>
        <pt x="406" y="463" on="0"/>
        <pt x="429" y="463" on="1"/>
        <pt x="454" y="463" on="0"/>
        <pt x="513" y="438" on="0"/>
        <pt x="516" y="423" on="1"/>
        <pt x="518" y="414" on="0"/>
        <pt x="499" y="388" on="0"/>
        <pt x="470" y="375" on="0"/>
        <pt x="455" y="384" on="1"/>
        <pt x="433" y="397" on="0"/>
        <pt x="398" y="401" on="0"/>
        <pt x="372" y="392" on="0"/>
        <pt x="355" y="383" on="1"/>
        <pt x="352" y="382" on="0"/>
        <pt x="347" y="378" on="0"/>
        <pt x="344" y="377" on="1"/>
      </contour>
    </TTGlyph>
    <TTGlyph name="h" xMin="16" yMin="0" xMax="536" yMax="715">
      <contour>
        <pt x="239" y="35" on="1"/>
        <pt x="237" y="12" on="0"/>
        <pt x="208" y="0" on="0"/>
        <pt x="165" y="0" on="1"/>
        <pt x="21" y="0" on="1"/>
        <pt x="18" y="23" on="0"/>
        <pt x="47" y="42" on="0"/>
        <pt x="86" y="53" on="1"/>
        <pt x="92" y="55" on="1"/>
        <pt x="92" y="620" on="1"/>
        <pt x="21" y="637" on="1"/>
        <pt x="16" y="650" on="0"/>
        <pt x="27" y="674" on="0"/>
        <pt x="57" y="692" on="1"/>
        <pt x="74" y="702" on="0"/>
        <pt x="116" y="715" on="0"/>
        <pt x="133" y="715" on="1"/>
        <pt x="148" y="715" on="0"/>
        <pt x="165" y="693" on="0"/>
        <pt x="165" y="665" on="1"/>
        <pt x="165" y="56" on="1"/>
      </contour>
      <contour>
        <pt x="536" y="35" on="1"/>
        <pt x="534" y="12" on="0"/>
        <pt x="505" y="0" on="0"/>
        <pt x="462" y="0" on="1"/>
        <pt x="318" y="0" on="1"/>
        <pt x="315" y="23" on="0"/>
        <pt x="344" y="42" on="0"/>
        <pt x="383" y="53" on="1"/>
        <pt x="389" y="55" on="1"/>
        <pt x="389" y="304" on="1"/>
        <pt x="389" y="355" on="0"/>
        <pt x="346" y="410" on="0"/>
        <pt x="300" y="410" on="1"/>
        <pt x="265" y="410" on="0"/>
        <pt x="175" y="378" on="0"/>
        <pt x="148" y="361" on="1"/>
        <pt x="149" y="407" on="1"/>
        <pt x="186" y="436" on="0"/>
        <pt x="281" y="480" on="0"/>
        <pt x="321" y="480" on="1"/>
        <pt x="389" y="480" on="0"/>
        <pt x="462" y="400" on="0"/>
        <pt x="462" y="327" on="1"/>
        <pt x="462" y="56" on="1"/>
      </contour>
    </TTGlyph>
    <TTGlyph name="hyphen" xMin="24" yMin="218" xMax="280" yMax="307">
      <contour>
        <pt x="240" y="237" on="1"/>
        <pt x="258" y="239" on="0"/>
        <pt x="278" y="260" on="0"/>
        <pt x="279" y="287" on="1"/>
        <pt x="280" y="307" on="1"/>
        <pt x="58" y="284" on="1"/>
        <pt x="45" y="283" on="0"/>
        <pt x="24" y="262" on="0"/>
        <pt x="24" y="239" on="1"/>
        <pt x="24" y="218" on="1"/>
      </contour>
    </TTGlyph>
    <TTGlyph name="i" xMin="31" yMin="0" xMax="254" yMax="676">
      <contour>
        <pt x="143" y="573" on="1"/>
        <pt x="117" y="573" on="0"/>
        <pt x="95" y="597" on="0"/>
        <pt x="95" y="625" on="1"/>
        <pt x="95" y="646" on="0"/>
        <pt x="123" y="676" on="0"/>
        <pt x="143" y="676" on="1"/>
        <pt x="166" y="676" on="0"/>
        <pt x="191" y="649" on="0"/>
        <pt x="191" y="625" on="1"/>
        <pt x="191" y="603" on="0"/>
        <pt x="163" y="573" on="0"/>
      </contour>
      <contour>
        <pt x="254" y="35" on="1"/>
        <pt x="252" y="12" on="0"/>
        <pt x="223" y="0" on="0"/>
        <pt x="180" y="0" on="1"/>
        <pt x="36" y="0" on="1"/>
        <pt x="33" y="23" on="0"/>
        <pt x="62" y="42" on="0"/>
        <pt x="101" y="53" on="1"/>
        <pt x="107" y="55" on="1"/>
        <pt x="107" y="385" on="1"/>
        <pt x="36" y="402" on="1"/>
        <pt x="31" y="415" on="0"/>
        <pt x="42" y="439" on="0"/>
        <pt x="72" y="457" on="1"/>
        <pt x="89" y="467" on="0"/>
        <pt x="131" y="480" on="0"/>
        <pt x="148" y="480" on="1"/>
        <pt x="163" y="480" on="0"/>
        <pt x="180" y="458" on="0"/>
        <pt x="180" y="430" on="1"/>
        <pt x="180" y="56" on="1"/>
      </contour>
    </TTGlyph>
    <TTGlyph name="j" xMin="-17" yMin="-278" xMax="173" yMax="676">
      <contour>
        <pt x="125" y="573" on="1"/>
        <pt x="99" y="573" on="0"/>
        <pt x="77" y="597" on="0"/>
        <pt x="77" y="625" on="1"/>
        <pt x="77" y="646" on="0"/>
        <pt x="105" y="676" on="0"/>
        <pt x="125" y="676" on="1"/>
        <pt x="148" y="676" on="0"/>
        <pt x="173" y="649" on="0"/>
        <pt x="173" y="625" on="1"/>
        <pt x="173" y="603" on="0"/>
        <pt x="145" y="573" on="0"/>
      </contour>
      <contour>
        <pt x="130" y="480" on="1"/>
        <pt x="145" y="480" on="0"/>
        <pt x="162" y="458" on="0"/>
        <pt x="162" y="430" on="1"/>
        <pt x="162" y="20" on="1"/>
        <pt x="162" y="-66" on="0"/>
        <pt x="130" y="-202" on="0"/>
        <pt x="69" y="-278" on="0"/>
        <pt x="27" y="-278" on="1"/>
        <pt x="5" y="-278" on="0"/>
        <pt x="-12" y="-261" on="0"/>
        <pt x="-17" y="-249" on="1"/>
        <pt x="-17" y="-248" on="1"/>
        <pt x="-16" y="-246" on="1"/>
        <pt x="26" y="-226" on="0"/>
        <pt x="72" y="-139" on="0"/>
        <pt x="89" y="-12" on="0"/>
        <pt x="89" y="80" on="1"/>
        <pt x="89" y="385" on="1"/>
        <pt x="18" y="402" on="1"/>
        <pt x="13" y="415" on="0"/>
        <pt x="24" y="439" on="0"/>
        <pt x="54" y="457" on="1"/>
        <pt x="71" y="467" on="0"/>
        <pt x="113" y="480" on="0"/>
      </contour>
    </TTGlyph>
    <TTGlyph name="k" xMin="16" yMin="0" xMax="494" yMax="715">
      <contour>
        <pt x="239" y="35" on="1"/>
        <pt x="237" y="12" on="0"/>
        <pt x="208" y="0" on="0"/>
        <pt x="165" y="0" on="1"/>
        <pt x="21" y="0" on="1"/>
        <pt x="18" y="23" on="0"/>
        <pt x="47" y="42" on="0"/>
        <pt x="86" y="53" on="1"/>
        <pt x="92" y="55" on="1"/>
        <pt x="92" y="620" on="1"/>
        <pt x="21" y="637" on="1"/>
        <pt x="16" y="650" on="0"/>
        <pt x="27" y="674" on="0"/>
        <pt x="57" y="692" on="1"/>
        <pt x="74" y="702" on="0"/>
        <pt x="116" y="715" on="0"/>
        <pt x="133" y="715" on="1"/>
        <pt x="148" y="715" on="0"/>
        <pt x="165" y="693" on="0"/>
        <pt x="165" y="665" on="1"/>
        <pt x="165" y="56" on="1"/>
      </contour>
      <contour>
        <pt x="183" y="237" on="1"/>
        <pt x="326" y="385" on="1"/>
        <pt x="317" y="388" on="1"/>
        <pt x="288" y="398" on="0"/>
        <pt x="263" y="418" on="0"/>
        <pt x="266" y="440" on="1"/>
        <pt x="406" y="440" on="1"/>
        <pt x="449" y="440" on="0"/>
        <pt x="478" y="428" on="0"/>
        <pt x="480" y="405" on="1"/>
        <pt x="407" y="384" on="1"/>
        <pt x="262" y="247" on="1"/>
        <pt x="369" y="125" on="1"/>
        <pt x="413" y="74" on="0"/>
        <pt x="470" y="39" on="0"/>
        <pt x="494" y="39" on="1"/>
        <pt x="494" y="21" on="0"/>
        <pt x="461" y="0" on="0"/>
        <pt x="436" y="0" on="1"/>
        <pt x="404" y="0" on="0"/>
        <pt x="349" y="38" on="0"/>
        <pt x="334" y="55" on="1"/>
      </contour>
    </TTGlyph>
    <TTGlyph name="l" xMin="16" yMin="0" xMax="239" yMax="715">
      <contour>
        <pt x="239" y="35" on="1"/>
        <pt x="237" y="12" on="0"/>
        <pt x="208" y="0" on="0"/>
        <pt x="165" y="0" on="1"/>
        <pt x="21" y="0" on="1"/>
        <pt x="18" y="23" on="0"/>
        <pt x="47" y="42" on="0"/>
        <pt x="86" y="53" on="1"/>
        <pt x="92" y="55" on="1"/>
        <pt x="92" y="620" on="1"/>
        <pt x="21" y="637" on="1"/>
        <pt x="16" y="650" on="0"/>
        <pt x="27" y="674" on="0"/>
        <pt x="57" y="692" on="1"/>
        <pt x="74" y="702" on="0"/>
        <pt x="116" y="715" on="0"/>
        <pt x="133" y="715" on="1"/>
        <pt x="148" y="715" on="0"/>
        <pt x="165" y="693" on="0"/>
        <pt x="165" y="665" on="1"/>
        <pt x="165" y="56" on="1"/>
      </contour>
    </TTGlyph>
    <TTGlyph name="m" xMin="31" yMin="0" xMax="848" yMax="480">
      <contour>
        <pt x="551" y="35" on="1"/>
        <pt x="549" y="12" on="0"/>
        <pt x="520" y="0" on="0"/>
        <pt x="477" y="0" on="1"/>
        <pt x="333" y="0" on="1"/>
        <pt x="330" y="23" on="0"/>
        <pt x="359" y="42" on="0"/>
        <pt x="398" y="53" on="1"/>
        <pt x="404" y="55" on="1"/>
        <pt x="404" y="304" on="1"/>
        <pt x="404" y="355" on="0"/>
        <pt x="361" y="410" on="0"/>
        <pt x="315" y="410" on="1"/>
        <pt x="280" y="410" on="0"/>
        <pt x="190" y="378" on="0"/>
        <pt x="163" y="361" on="1"/>
        <pt x="164" y="407" on="1"/>
        <pt x="201" y="436" on="0"/>
        <pt x="296" y="480" on="0"/>
        <pt x="336" y="480" on="1"/>
        <pt x="404" y="480" on="0"/>
        <pt x="477" y="400" on="0"/>
        <pt x="477" y="327" on="1"/>
        <pt x="477" y="56" on="1"/>
      </contour>
      <contour>
        <pt x="848" y="35" on="1"/>
        <pt x="846" y="12" on="0"/>
        <pt x="817" y="0" on="0"/>
        <pt x="774" y="0" on="1"/>
        <pt x="630" y="0" on="1"/>
        <pt x="627" y="23" on="0"/>
        <pt x="656" y="42" on="0"/>
        <pt x="695" y="53" on="1"/>
        <pt x="701" y="55" on="1"/>
        <pt x="701" y="304" on="1"/>
        <pt x="701" y="355" on="0"/>
        <pt x="658" y="410" on="0"/>
        <pt x="612" y="410" on="1"/>
        <pt x="577" y="410" on="0"/>
        <pt x="487" y="378" on="0"/>
        <pt x="460" y="361" on="1"/>
        <pt x="461" y="407" on="1"/>
        <pt x="498" y="436" on="0"/>
        <pt x="593" y="480" on="0"/>
        <pt x="633" y="480" on="1"/>
        <pt x="701" y="480" on="0"/>
        <pt x="774" y="400" on="0"/>
        <pt x="774" y="327" on="1"/>
        <pt x="774" y="56" on="1"/>
      </contour>
      <contour>
        <pt x="254" y="35" on="1"/>
        <pt x="252" y="12" on="0"/>
        <pt x="223" y="0" on="0"/>
        <pt x="180" y="0" on="1"/>
        <pt x="36" y="0" on="1"/>
        <pt x="33" y="23" on="0"/>
        <pt x="62" y="42" on="0"/>
        <pt x="101" y="53" on="1"/>
        <pt x="107" y="55" on="1"/>
        <pt x="107" y="385" on="1"/>
        <pt x="36" y="402" on="1"/>
        <pt x="31" y="415" on="0"/>
        <pt x="42" y="439" on="0"/>
        <pt x="72" y="457" on="1"/>
        <pt x="89" y="467" on="0"/>
        <pt x="131" y="480" on="0"/>
        <pt x="148" y="480" on="1"/>
        <pt x="163" y="480" on="0"/>
        <pt x="180" y="458" on="0"/>
        <pt x="180" y="430" on="1"/>
        <pt x="180" y="56" on="1"/>
      </contour>
    </TTGlyph>
    <TTGlyph name="n" xMin="31" yMin="0" xMax="551" yMax="480">
      <contour>
        <pt x="551" y="35" on="1"/>
        <pt x="549" y="12" on="0"/>
        <pt x="520" y="0" on="0"/>
        <pt x="477" y="0" on="1"/>
        <pt x="333" y="0" on="1"/>
        <pt x="330" y="23" on="0"/>
        <pt x="359" y="42" on="0"/>
        <pt x="398" y="53" on="1"/>
        <pt x="404" y="55" on="1"/>
        <pt x="404" y="304" on="1"/>
        <pt x="404" y="355" on="0"/>
        <pt x="361" y="410" on="0"/>
        <pt x="315" y="410" on="1"/>
        <pt x="280" y="410" on="0"/>
        <pt x="190" y="378" on="0"/>
        <pt x="163" y="361" on="1"/>
        <pt x="164" y="407" on="1"/>
        <pt x="201" y="436" on="0"/>
        <pt x="296" y="480" on="0"/>
        <pt x="336" y="480" on="1"/>
        <pt x="405" y="480" on="0"/>
        <pt x="477" y="400" on="0"/>
        <pt x="477" y="327" on="1"/>
        <pt x="477" y="56" on="1"/>
      </contour>
      <contour>
        <pt x="254" y="35" on="1"/>
        <pt x="252" y="12" on="0"/>
        <pt x="223" y="0" on="0"/>
        <pt x="180" y="0" on="1"/>
        <pt x="36" y="0" on="1"/>
        <pt x="33" y="23" on="0"/>
        <pt x="62" y="42" on="0"/>
        <pt x="101" y="53" on="1"/>
        <pt x="107" y="55" on="1"/>
        <pt x="107" y="385" on="1"/>
        <pt x="36" y="402" on="1"/>
        <pt x="31" y="415" on="0"/>
        <pt x="42" y="439" on="0"/>
        <pt x="72" y="457" on="1"/>
        <pt x="89" y="467" on="0"/>
        <pt x="131" y="480" on="0"/>
        <pt x="148" y="480" on="1"/>
        <pt x="163" y="480" on="0"/>
        <pt x="180" y="458" on="0"/>
        <pt x="180" y="430" on="1"/>
        <pt x="180" y="56" on="1"/>
      </contour>
    </TTGlyph>
    <TTGlyph name="o" xMin="29" yMin="-1" xMax="466" yMax="481">
      <contour>
        <pt x="231" y="-1" on="1"/>
        <pt x="137" y="-1" on="0"/>
        <pt x="29" y="116" on="0"/>
        <pt x="29" y="219" on="1"/>
        <pt x="29" y="292" on="0"/>
        <pt x="84" y="411" on="0"/>
        <pt x="190" y="481" on="0"/>
        <pt x="264" y="481" on="1"/>
        <pt x="358" y="481" on="0"/>
        <pt x="466" y="364" on="0"/>
        <pt x="466" y="261" on="1"/>
        <pt x="466" y="188" on="0"/>
        <pt x="411" y="69" on="0"/>
        <pt x="305" y="-1" on="0"/>
      </contour>
      <contour>
        <pt x="263" y="69" on="1"/>
        <pt x="308" y="69" on="0"/>
        <pt x="366" y="116" on="0"/>
        <pt x="392" y="189" on="0"/>
        <pt x="392" y="232" on="1"/>
        <pt x="392" y="318" on="0"/>
        <pt x="305" y="411" on="0"/>
        <pt x="229" y="411" on="1"/>
        <pt x="185" y="411" on="0"/>
        <pt x="128" y="365" on="0"/>
        <pt x="103" y="291" on="0"/>
        <pt x="103" y="248" on="1"/>
        <pt x="103" y="191" on="0"/>
        <pt x="141" y="110" on="0"/>
        <pt x="213" y="69" on="0"/>
      </contour>
    </TTGlyph>
    <TTGlyph name="p" xMin="10" yMin="-285" xMax="497" yMax="480">
      <contour>
        <pt x="251" y="-250" on="1"/>
        <pt x="250" y="-266" on="0"/>
        <pt x="234" y="-281" on="0"/>
        <pt x="202" y="-285" on="0"/>
        <pt x="167" y="-285" on="1"/>
        <pt x="13" y="-285" on="1"/>
        <pt x="10" y="-261" on="0"/>
        <pt x="45" y="-242" on="0"/>
        <pt x="94" y="-230" on="1"/>
        <pt x="94" y="-230" on="1"/>
        <pt x="94" y="385" on="1"/>
        <pt x="23" y="402" on="1"/>
        <pt x="18" y="415" on="0"/>
        <pt x="29" y="439" on="0"/>
        <pt x="59" y="457" on="1"/>
        <pt x="75" y="466" on="0"/>
        <pt x="124" y="480" on="0"/>
        <pt x="135" y="480" on="1"/>
        <pt x="150" y="480" on="0"/>
        <pt x="167" y="458" on="0"/>
        <pt x="167" y="430" on="1"/>
        <pt x="167" y="-229" on="1"/>
      </contour>
      <contour>
        <pt x="138" y="143" on="1"/>
        <pt x="154" y="102" on="0"/>
        <pt x="234" y="58" on="0"/>
        <pt x="284" y="58" on="1"/>
        <pt x="328" y="58" on="0"/>
        <pt x="388" y="108" on="0"/>
        <pt x="417" y="193" on="0"/>
        <pt x="417" y="248" on="1"/>
        <pt x="417" y="303" on="0"/>
        <pt x="384" y="376" on="0"/>
        <pt x="331" y="410" on="0"/>
        <pt x="300" y="410" on="1"/>
        <pt x="271" y="410" on="0"/>
        <pt x="173" y="376" on="0"/>
        <pt x="150" y="358" on="1"/>
        <pt x="150" y="406" on="1"/>
        <pt x="151" y="407" on="0"/>
        <pt x="155" y="410" on="0"/>
        <pt x="156" y="411" on="1"/>
        <pt x="184" y="435" on="0"/>
        <pt x="288" y="480" on="0"/>
        <pt x="323" y="480" on="1"/>
        <pt x="402" y="480" on="0"/>
        <pt x="497" y="370" on="0"/>
        <pt x="497" y="269" on="1"/>
        <pt x="497" y="185" on="0"/>
        <pt x="431" y="62" on="0"/>
        <pt x="317" y="-3" on="0"/>
        <pt x="245" y="-3" on="1"/>
        <pt x="212" y="-3" on="0"/>
        <pt x="144" y="14" on="0"/>
        <pt x="120" y="33" on="1"/>
        <pt x="120" y="136" on="1"/>
      </contour>
    </TTGlyph>
    <TTGlyph name="period" xMin="21" yMin="0" xMax="123" yMax="104">
      <contour>
        <pt x="72" y="0" on="1"/>
        <pt x="44" y="0" on="0"/>
        <pt x="21" y="24" on="0"/>
        <pt x="21" y="52" on="1"/>
        <pt x="21" y="74" on="0"/>
        <pt x="50" y="104" on="0"/>
        <pt x="72" y="104" on="1"/>
        <pt x="97" y="104" on="0"/>
        <pt x="123" y="77" on="0"/>
        <pt x="123" y="52" on="1"/>
        <pt x="123" y="29" on="0"/>
        <pt x="94" y="0" on="0"/>
      </contour>
    </TTGlyph>
    <TTGlyph name="q" xMin="51" yMin="-285" xMax="525" yMax="480">
      <contour>
        <pt x="417" y="334" on="1"/>
        <pt x="401" y="375" on="0"/>
        <pt x="338" y="409" on="0"/>
        <pt x="282" y="409" on="1"/>
        <pt x="212" y="409" on="0"/>
        <pt x="128" y="309" on="0"/>
        <pt x="128" y="229" on="1"/>
        <pt x="128" y="172" on="0"/>
        <pt x="159" y="100" on="0"/>
        <pt x="216" y="67" on="0"/>
        <pt x="258" y="67" on="1"/>
        <pt x="286" y="67" on="0"/>
        <pt x="373" y="92" on="0"/>
        <pt x="395" y="109" on="1"/>
        <pt x="394" y="61" on="1"/>
        <pt x="370" y="38" on="0"/>
        <pt x="268" y="0" on="0"/>
        <pt x="230" y="0" on="1"/>
        <pt x="176" y="0" on="0"/>
        <pt x="96" y="47" on="0"/>
        <pt x="51" y="141" on="0"/>
        <pt x="51" y="208" on="1"/>
        <pt x="51" y="291" on="0"/>
        <pt x="124" y="414" on="0"/>
        <pt x="247" y="480" on="0"/>
        <pt x="321" y="480" on="1"/>
        <pt x="364" y="480" on="0"/>
        <pt x="428" y="456" on="0"/>
        <pt x="451" y="428" on="1"/>
        <pt x="451" y="347" on="1"/>
      </contour>
      <contour>
        <pt x="307" y="-285" on="1"/>
        <pt x="304" y="-262" on="0"/>
        <pt x="333" y="-243" on="0"/>
        <pt x="372" y="-232" on="1"/>
        <pt x="378" y="-230" on="1"/>
        <pt x="378" y="460" on="1"/>
        <pt x="451" y="428" on="1"/>
        <pt x="451" y="-229" on="1"/>
        <pt x="525" y="-250" on="1"/>
        <pt x="523" y="-273" on="0"/>
        <pt x="494" y="-285" on="0"/>
        <pt x="451" y="-285" on="1"/>
      </contour>
    </TTGlyph>
    <TTGlyph name="question" xMin="59" yMin="0" xMax="397" yMax="715">
      <contour>
        <pt x="213" y="0" on="1"/>
        <pt x="185" y="0" on="0"/>
        <pt x="162" y="24" on="0"/>
        <pt x="162" y="52" on="1"/>
        <pt x="162" y="74" on="0"/>
        <pt x="191" y="104" on="0"/>
        <pt x="213" y="104" on="1"/>
        <pt x="238" y="104" on="0"/>
        <pt x="264" y="77" on="0"/>
        <pt x="264" y="52" on="1"/>
        <pt x="264" y="29" on="0"/>
        <pt x="235" y="0" on="0"/>
      </contour>
      <contour>
        <pt x="235" y="223" on="1"/>
        <pt x="230" y="215" on="0"/>
        <pt x="201" y="209" on="0"/>
        <pt x="174" y="214" on="0"/>
        <pt x="170" y="223" on="1"/>
        <pt x="156" y="256" on="0"/>
        <pt x="156" y="291" on="1"/>
        <pt x="156" y="330" on="0"/>
        <pt x="181" y="393" on="0"/>
        <pt x="215" y="438" on="0"/>
        <pt x="244" y="470" on="1"/>
        <pt x="279" y="508" on="0"/>
        <pt x="312" y="560" on="0"/>
        <pt x="312" y="593" on="1"/>
        <pt x="312" y="630" on="0"/>
        <pt x="262" y="672" on="0"/>
        <pt x="218" y="672" on="1"/>
        <pt x="189" y="672" on="0"/>
        <pt x="134" y="632" on="0"/>
        <pt x="134" y="608" on="1"/>
        <pt x="134" y="588" on="0"/>
        <pt x="150" y="553" on="0"/>
        <pt x="165" y="543" on="1"/>
        <pt x="162" y="532" on="0"/>
        <pt x="136" y="517" on="0"/>
        <pt x="122" y="517" on="1"/>
        <pt x="96" y="517" on="0"/>
        <pt x="59" y="556" on="0"/>
        <pt x="59" y="591" on="1"/>
        <pt x="59" y="628" on="0"/>
        <pt x="112" y="685" on="0"/>
        <pt x="193" y="715" on="0"/>
        <pt x="233" y="715" on="1"/>
        <pt x="302" y="715" on="0"/>
        <pt x="397" y="659" on="0"/>
        <pt x="397" y="590" on="1"/>
        <pt x="397" y="542" on="0"/>
        <pt x="343" y="462" on="0"/>
        <pt x="294" y="413" on="1"/>
        <pt x="260" y="378" on="0"/>
        <pt x="228" y="335" on="0"/>
        <pt x="228" y="315" on="1"/>
        <pt x="228" y="299" on="0"/>
        <pt x="235" y="269" on="1"/>
        <pt x="239" y="250" on="0"/>
        <pt x="240" y="231" on="0"/>
      </contour>
    </TTGlyph>
    <TTGlyph name="quotedblleft" xMin="78" yMin="475" xMax="354" yMax="695">
      <contour>
        <pt x="182" y="690" on="1"/>
        <pt x="182" y="682" on="1"/>
        <pt x="156" y="656" on="0"/>
        <pt x="144" y="600" on="0"/>
        <pt x="154" y="586" on="1"/>
        <pt x="158" y="580" on="0"/>
        <pt x="170" y="570" on="0"/>
        <pt x="175" y="566" on="1"/>
        <pt x="185" y="559" on="0"/>
        <pt x="194" y="543" on="0"/>
        <pt x="194" y="525" on="1"/>
        <pt x="194" y="504" on="0"/>
        <pt x="165" y="475" on="0"/>
        <pt x="142" y="475" on="1"/>
        <pt x="114" y="475" on="0"/>
        <pt x="78" y="515" on="0"/>
        <pt x="78" y="542" on="1"/>
        <pt x="78" y="583" on="0"/>
        <pt x="126" y="669" on="0"/>
        <pt x="163" y="695" on="1"/>
      </contour>
      <contour>
        <pt x="342" y="690" on="1"/>
        <pt x="342" y="682" on="1"/>
        <pt x="316" y="656" on="0"/>
        <pt x="304" y="600" on="0"/>
        <pt x="314" y="586" on="1"/>
        <pt x="318" y="580" on="0"/>
        <pt x="330" y="570" on="0"/>
        <pt x="335" y="566" on="1"/>
        <pt x="345" y="559" on="0"/>
        <pt x="354" y="543" on="0"/>
        <pt x="354" y="525" on="1"/>
        <pt x="354" y="504" on="0"/>
        <pt x="325" y="475" on="0"/>
        <pt x="302" y="475" on="1"/>
        <pt x="274" y="475" on="0"/>
        <pt x="238" y="515" on="0"/>
        <pt x="238" y="542" on="1"/>
        <pt x="238" y="583" on="0"/>
        <pt x="286" y="669" on="0"/>
        <pt x="323" y="695" on="1"/>
      </contour>
    </TTGlyph>
    <TTGlyph name="quotedblright" xMin="78" yMin="475" xMax="354" yMax="695">
      <contour>
        <pt x="90" y="480" on="1"/>
        <pt x="90" y="488" on="1"/>
        <pt x="116" y="514" on="0"/>
        <pt x="128" y="570" on="0"/>
        <pt x="118" y="584" on="1"/>
        <pt x="114" y="590" on="0"/>
        <pt x="102" y="600" on="0"/>
        <pt x="97" y="604" on="1"/>
        <pt x="87" y="611" on="0"/>
        <pt x="78" y="627" on="0"/>
        <pt x="78" y="645" on="1"/>
        <pt x="78" y="666" on="0"/>
        <pt x="107" y="695" on="0"/>
        <pt x="130" y="695" on="1"/>
        <pt x="158" y="695" on="0"/>
        <pt x="194" y="655" on="0"/>
        <pt x="194" y="628" on="1"/>
        <pt x="194" y="587" on="0"/>
        <pt x="146" y="501" on="0"/>
        <pt x="109" y="475" on="1"/>
      </contour>
      <contour>
        <pt x="250" y="480" on="1"/>
        <pt x="250" y="488" on="1"/>
        <pt x="276" y="514" on="0"/>
        <pt x="288" y="570" on="0"/>
        <pt x="278" y="584" on="1"/>
        <pt x="274" y="590" on="0"/>
        <pt x="262" y="600" on="0"/>
        <pt x="257" y="604" on="1"/>
        <pt x="247" y="611" on="0"/>
        <pt x="238" y="627" on="0"/>
        <pt x="238" y="645" on="1"/>
        <pt x="238" y="666" on="0"/>
        <pt x="267" y="695" on="0"/>
        <pt x="290" y="695" on="1"/>
        <pt x="318" y="695" on="0"/>
        <pt x="354" y="655" on="0"/>
        <pt x="354" y="628" on="1"/>
        <pt x="354" y="587" on="0"/>
        <pt x="306" y="501" on="0"/>
        <pt x="269" y="475" on="1"/>
      </contour>
    </TTGlyph>
    <TTGlyph name="quoteleft" xMin="75" yMin="475" xMax="191" yMax="695">
      <contour>
        <pt x="179" y="690" on="1"/>
        <pt x="179" y="682" on="1"/>
        <pt x="153" y="656" on="0"/>
        <pt x="141" y="600" on="0"/>
        <pt x="151" y="586" on="1"/>
        <pt x="155" y="580" on="0"/>
        <pt x="167" y="570" on="0"/>
        <pt x="172" y="566" on="1"/>
        <pt x="182" y="559" on="0"/>
        <pt x="191" y="543" on="0"/>
        <pt x="191" y="525" on="1"/>
        <pt x="191" y="504" on="0"/>
        <pt x="162" y="475" on="0"/>
        <pt x="139" y="475" on="1"/>
        <pt x="111" y="475" on="0"/>
        <pt x="75" y="515" on="0"/>
        <pt x="75" y="542" on="1"/>
        <pt x="75" y="583" on="0"/>
        <pt x="123" y="669" on="0"/>
        <pt x="160" y="695" on="1"/>
      </contour>
    </TTGlyph>
    <TTGlyph name="quoteright" xMin="75" yMin="475" xMax="191" yMax="695">
      <contour>
        <pt x="87" y="480" on="1"/>
        <pt x="87" y="488" on="1"/>
        <pt x="113" y="514" on="0"/>
        <pt x="125" y="570" on="0"/>
        <pt x="115" y="584" on="1"/>
        <pt x="111" y="590" on="0"/>
        <pt x="99" y="600" on="0"/>
        <pt x="94" y="604" on="1"/>
        <pt x="84" y="611" on="0"/>
        <pt x="75" y="627" on="0"/>
        <pt x="75" y="645" on="1"/>
        <pt x="75" y="666" on="0"/>
        <pt x="104" y="695" on="0"/>
        <pt x="127" y="695" on="1"/>
        <pt x="155" y="695" on="0"/>
        <pt x="191" y="655" on="0"/>
        <pt x="191" y="628" on="1"/>
        <pt x="191" y="587" on="0"/>
        <pt x="143" y="501" on="0"/>
        <pt x="106" y="475" on="1"/>
      </contour>
    </TTGlyph>
    <TTGlyph name="r" xMin="26" yMin="0" xMax="394" yMax="480">
      <contour>
        <pt x="249" y="35" on="1"/>
        <pt x="247" y="12" on="0"/>
        <pt x="218" y="0" on="0"/>
        <pt x="175" y="0" on="1"/>
        <pt x="31" y="0" on="1"/>
        <pt x="28" y="23" on="0"/>
        <pt x="57" y="42" on="0"/>
        <pt x="96" y="53" on="1"/>
        <pt x="102" y="55" on="1"/>
        <pt x="102" y="385" on="1"/>
        <pt x="31" y="402" on="1"/>
        <pt x="26" y="415" on="0"/>
        <pt x="37" y="439" on="0"/>
        <pt x="67" y="457" on="1"/>
        <pt x="83" y="466" on="0"/>
        <pt x="132" y="480" on="0"/>
        <pt x="143" y="480" on="1"/>
        <pt x="158" y="480" on="0"/>
        <pt x="175" y="458" on="0"/>
        <pt x="175" y="430" on="1"/>
        <pt x="175" y="56" on="1"/>
      </contour>
      <contour>
        <pt x="155" y="405" on="1"/>
        <pt x="151" y="402" on="0"/>
        <pt x="191" y="428" on="1"/>
        <pt x="229" y="454" on="0"/>
        <pt x="280" y="480" on="0"/>
        <pt x="302" y="480" on="1"/>
        <pt x="335" y="480" on="0"/>
        <pt x="394" y="437" on="0"/>
        <pt x="394" y="409" on="1"/>
        <pt x="394" y="395" on="0"/>
        <pt x="372" y="367" on="0"/>
        <pt x="359" y="362" on="1"/>
        <pt x="338" y="381" on="0"/>
        <pt x="289" y="408" on="0"/>
        <pt x="269" y="408" on="1"/>
        <pt x="246" y="408" on="0"/>
        <pt x="200" y="387" on="0"/>
        <pt x="160" y="363" on="1"/>
      </contour>
    </TTGlyph>
    <TTGlyph name="s" xMin="50" yMin="4" xMax="364" yMax="484">
      <contour>
        <pt x="53" y="352" on="1"/>
        <pt x="53" y="400" on="0"/>
        <pt x="105" y="459" on="0"/>
        <pt x="179" y="484" on="0"/>
        <pt x="212" y="484" on="1"/>
        <pt x="254" y="484" on="0"/>
        <pt x="327" y="462" on="0"/>
        <pt x="346" y="445" on="1"/>
        <pt x="346" y="405" on="1"/>
        <pt x="346" y="369" on="0"/>
        <pt x="334" y="343" on="0"/>
        <pt x="311" y="341" on="1"/>
        <pt x="295" y="389" on="1"/>
        <pt x="279" y="408" on="0"/>
        <pt x="234" y="434" on="0"/>
        <pt x="197" y="434" on="1"/>
        <pt x="171" y="434" on="0"/>
        <pt x="127" y="407" on="0"/>
        <pt x="127" y="381" on="1"/>
        <pt x="127" y="351" on="0"/>
        <pt x="157" y="312" on="0"/>
        <pt x="201" y="289" on="0"/>
        <pt x="239" y="274" on="1"/>
        <pt x="280" y="258" on="0"/>
        <pt x="330" y="231" on="0"/>
        <pt x="364" y="183" on="0"/>
        <pt x="364" y="146" on="1"/>
        <pt x="364" y="73" on="0"/>
        <pt x="269" y="4" on="0"/>
        <pt x="193" y="4" on="1"/>
        <pt x="146" y="4" on="0"/>
        <pt x="64" y="30" on="0"/>
        <pt x="50" y="43" on="1"/>
        <pt x="50" y="83" on="1"/>
        <pt x="50" y="128" on="0"/>
        <pt x="62" y="158" on="0"/>
        <pt x="85" y="160" on="1"/>
        <pt x="101" y="99" on="1"/>
        <pt x="117" y="80" on="0"/>
        <pt x="164" y="54" on="0"/>
        <pt x="208" y="54" on="1"/>
        <pt x="245" y="54" on="0"/>
        <pt x="290" y="88" on="0"/>
        <pt x="290" y="117" on="1"/>
        <pt x="290" y="153" on="0"/>
        <pt x="239" y="192" on="0"/>
        <pt x="186" y="212" on="1"/>
        <pt x="143" y="229" on="0"/>
        <pt x="90" y="259" on="0"/>
        <pt x="53" y="311" on="0"/>
      </contour>
    </TTGlyph>
    <TTGlyph name="semicolon" xMin="91" yMin="-120" xMax="207" yMax="443">
      <contour>
        <pt x="103" y="-115" on="1"/>
        <pt x="103" y="-107" on="1"/>
        <pt x="129" y="-81" on="0"/>
        <pt x="141" y="-25" on="0"/>
        <pt x="131" y="-11" on="1"/>
        <pt x="125" y="-3" on="0"/>
        <pt x="110" y="9" on="1"/>
        <pt x="100" y="16" on="0"/>
        <pt x="91" y="32" on="0"/>
        <pt x="91" y="50" on="1"/>
        <pt x="91" y="71" on="0"/>
        <pt x="120" y="100" on="0"/>
        <pt x="143" y="100" on="1"/>
        <pt x="171" y="100" on="0"/>
        <pt x="207" y="60" on="0"/>
        <pt x="207" y="33" on="1"/>
        <pt x="207" y="-8" on="0"/>
        <pt x="159" y="-94" on="0"/>
        <pt x="122" y="-120" on="1"/>
      </contour>
      <contour>
        <pt x="148" y="343" on="1"/>
        <pt x="122" y="343" on="0"/>
        <pt x="99" y="367" on="0"/>
        <pt x="99" y="393" on="1"/>
        <pt x="99" y="414" on="0"/>
        <pt x="127" y="443" on="0"/>
        <pt x="148" y="443" on="1"/>
        <pt x="171" y="443" on="0"/>
        <pt x="197" y="416" on="0"/>
        <pt x="197" y="393" on="1"/>
        <pt x="197" y="372" on="0"/>
        <pt x="169" y="343" on="0"/>
      </contour>
    </TTGlyph>
    <TTGlyph name="t" xMin="24" yMin="0" xMax="328" yMax="575">
      <contour>
        <pt x="112" y="401" on="1"/>
        <pt x="24" y="408" on="1"/>
        <pt x="26" y="433" on="0"/>
        <pt x="61" y="452" on="0"/>
        <pt x="112" y="457" on="1"/>
        <pt x="312" y="468" on="1"/>
        <pt x="319" y="430" on="0"/>
        <pt x="249" y="405" on="0"/>
        <pt x="185" y="405" on="1"/>
        <pt x="185" y="375" on="1"/>
        <pt x="112" y="375" on="1"/>
      </contour>
      <contour>
        <pt x="112" y="550" on="1"/>
        <pt x="135" y="575" on="0"/>
        <pt x="153" y="575" on="1"/>
        <pt x="185" y="575" on="0"/>
        <pt x="185" y="535" on="1"/>
        <pt x="185" y="106" on="1"/>
        <pt x="185" y="88" on="0"/>
        <pt x="208" y="66" on="0"/>
        <pt x="243" y="63" on="0"/>
        <pt x="259" y="70" on="1"/>
        <pt x="271" y="75" on="0"/>
        <pt x="294" y="91" on="0"/>
        <pt x="304" y="99" on="1"/>
        <pt x="308" y="102" on="1"/>
        <pt x="322" y="98" on="0"/>
        <pt x="328" y="78" on="0"/>
        <pt x="321" y="66" on="1"/>
        <pt x="303" y="35" on="0"/>
        <pt x="243" y="0" on="0"/>
        <pt x="211" y="0" on="1"/>
        <pt x="160" y="0" on="0"/>
        <pt x="112" y="49" on="0"/>
        <pt x="112" y="85" on="1"/>
      </contour>
    </TTGlyph>
    <TTGlyph name="u" xMin="17" yMin="-2" xMax="537" yMax="479">
      <contour>
        <pt x="17" y="440" on="1"/>
        <pt x="19" y="462" on="0"/>
        <pt x="43" y="472" on="0"/>
        <pt x="82" y="475" on="1"/>
        <pt x="84" y="475" on="0"/>
        <pt x="89" y="475" on="0"/>
        <pt x="91" y="475" on="1"/>
        <pt x="164" y="479" on="1"/>
        <pt x="164" y="176" on="1"/>
        <pt x="164" y="124" on="0"/>
        <pt x="207" y="70" on="0"/>
        <pt x="253" y="70" on="1"/>
        <pt x="288" y="70" on="0"/>
        <pt x="378" y="102" on="0"/>
        <pt x="405" y="119" on="1"/>
        <pt x="404" y="73" on="1"/>
        <pt x="367" y="44" on="0"/>
        <pt x="272" y="0" on="0"/>
        <pt x="232" y="0" on="1"/>
        <pt x="163" y="0" on="0"/>
        <pt x="91" y="80" on="0"/>
        <pt x="91" y="153" on="1"/>
        <pt x="91" y="419" on="1"/>
      </contour>
      <contour>
        <pt x="314" y="440" on="1"/>
        <pt x="316" y="462" on="0"/>
        <pt x="340" y="472" on="0"/>
        <pt x="379" y="475" on="1"/>
        <pt x="381" y="475" on="0"/>
        <pt x="386" y="475" on="0"/>
        <pt x="388" y="475" on="1"/>
        <pt x="461" y="479" on="1"/>
        <pt x="461" y="93" on="1"/>
        <pt x="532" y="76" on="1"/>
        <pt x="537" y="63" on="0"/>
        <pt x="526" y="39" on="0"/>
        <pt x="496" y="21" on="1"/>
        <pt x="480" y="12" on="0"/>
        <pt x="431" y="-2" on="0"/>
        <pt x="420" y="-2" on="1"/>
        <pt x="405" y="-2" on="0"/>
        <pt x="388" y="20" on="0"/>
        <pt x="388" y="48" on="1"/>
        <pt x="388" y="419" on="1"/>
      </contour>
    </TTGlyph>
    <TTGlyph name="uni203D" xMin="61" yMin="-4" xMax="457" yMax="715">
      <contour>
        <pt x="268" y="-4" on="1"/>
        <pt x="244" y="-4" on="0"/>
        <pt x="222" y="19" on="0"/>
        <pt x="222" y="43" on="1"/>
        <pt x="222" y="61" on="0"/>
        <pt x="250" y="90" on="0"/>
        <pt x="268" y="90" on="1"/>
        <pt x="289" y="90" on="0"/>
        <pt x="314" y="64" on="0"/>
        <pt x="314" y="43" on="1"/>
        <pt x="314" y="24" on="0"/>
        <pt x="287" y="-4" on="0"/>
      </contour>
      <contour>
        <pt x="285" y="223" on="1"/>
        <pt x="280" y="215" on="0"/>
        <pt x="251" y="209" on="0"/>
        <pt x="224" y="214" on="0"/>
        <pt x="220" y="223" on="1"/>
        <pt x="215" y="235" on="0"/>
        <pt x="215" y="291" on="1"/>
        <pt x="215" y="332" on="0"/>
        <pt x="239" y="390" on="0"/>
        <pt x="273" y="428" on="0"/>
        <pt x="301" y="451" on="1"/>
        <pt x="337" y="482" on="0"/>
        <pt x="372" y="532" on="0"/>
        <pt x="372" y="573" on="1"/>
        <pt x="372" y="618" on="0"/>
        <pt x="298" y="672" on="0"/>
        <pt x="248" y="672" on="1"/>
        <pt x="220" y="672" on="0"/>
        <pt x="168" y="648" on="0"/>
        <pt x="136" y="610" on="0"/>
        <pt x="136" y="589" on="1"/>
        <pt x="136" y="564" on="0"/>
        <pt x="158" y="536" on="0"/>
        <pt x="175" y="533" on="1"/>
        <pt x="172" y="515" on="0"/>
        <pt x="139" y="488" on="0"/>
        <pt x="124" y="488" on="1"/>
        <pt x="98" y="488" on="0"/>
        <pt x="61" y="530" on="0"/>
        <pt x="61" y="572" on="1"/>
        <pt x="61" y="614" on="0"/>
        <pt x="120" y="679" on="0"/>
        <pt x="213" y="715" on="0"/>
        <pt x="263" y="715" on="1"/>
        <pt x="342" y="715" on="0"/>
        <pt x="457" y="648" on="0"/>
        <pt x="457" y="570" on="1"/>
        <pt x="457" y="531" on="0"/>
        <pt x="426" y="471" on="0"/>
        <pt x="382" y="429" on="0"/>
        <pt x="348" y="403" on="1"/>
        <pt x="311" y="375" on="0"/>
        <pt x="278" y="338" on="0"/>
        <pt x="278" y="315" on="1"/>
        <pt x="278" y="299" on="0"/>
        <pt x="285" y="269" on="1"/>
        <pt x="289" y="250" on="0"/>
        <pt x="290" y="231" on="0"/>
      </contour>
      <contour>
        <pt x="215" y="291" on="1"/>
        <pt x="215" y="302" on="0"/>
        <pt x="219" y="342" on="1"/>
        <pt x="223" y="378" on="0"/>
        <pt x="223" y="388" on="1"/>
        <pt x="223" y="467" on="0"/>
        <pt x="215" y="558" on="1"/>
        <pt x="213" y="580" on="0"/>
        <pt x="213" y="586" on="1"/>
        <pt x="212" y="604" on="0"/>
        <pt x="243" y="624" on="0"/>
        <pt x="281" y="624" on="0"/>
        <pt x="288" y="615" on="1"/>
        <pt x="296" y="605" on="0"/>
        <pt x="295" y="576" on="0"/>
        <pt x="289" y="540" on="1"/>
        <pt x="286" y="523" on="0"/>
        <pt x="280" y="483" on="0"/>
        <pt x="278" y="459" on="1"/>
        <pt x="276" y="439" on="0"/>
        <pt x="276" y="420" on="1"/>
        <pt x="274" y="379" on="1"/>
      </contour>
    </TTGlyph>
    <TTGlyph name="v" xMin="17" yMin="0" xMax="535" yMax="480">
      <contour>
        <pt x="307" y="0" on="1"/>
        <pt x="248" y="0" on="1"/>
        <pt x="91" y="425" on="1"/>
        <pt x="85" y="427" on="1"/>
        <pt x="46" y="438" on="0"/>
        <pt x="17" y="457" on="0"/>
        <pt x="20" y="480" on="1"/>
        <pt x="173" y="480" on="1"/>
        <pt x="216" y="480" on="0"/>
        <pt x="245" y="468" on="0"/>
        <pt x="247" y="445" on="1"/>
        <pt x="173" y="424" on="1"/>
        <pt x="294" y="79" on="1"/>
        <pt x="271" y="23" on="1"/>
        <pt x="393" y="425" on="1"/>
        <pt x="373" y="431" on="1"/>
        <pt x="347" y="440" on="0"/>
        <pt x="325" y="460" on="0"/>
        <pt x="325" y="480" on="1"/>
        <pt x="461" y="480" on="1"/>
        <pt x="504" y="480" on="0"/>
        <pt x="533" y="468" on="0"/>
        <pt x="535" y="445" on="1"/>
        <pt x="466" y="424" on="1"/>
      </contour>
    </TTGlyph>
    <TTGlyph name="w" xMin="7" yMin="0" xMax="807" yMax="480">
      <contour>
        <pt x="580" y="93" on="1"/>
        <pt x="565" y="45" on="1"/>
        <pt x="672" y="425" on="1"/>
        <pt x="667" y="426" on="1"/>
        <pt x="628" y="438" on="0"/>
        <pt x="599" y="457" on="0"/>
        <pt x="602" y="480" on="1"/>
        <pt x="733" y="480" on="1"/>
        <pt x="776" y="480" on="0"/>
        <pt x="805" y="468" on="0"/>
        <pt x="807" y="445" on="1"/>
        <pt x="734" y="424" on="1"/>
        <pt x="605" y="0" on="1"/>
        <pt x="540" y="0" on="1"/>
        <pt x="413" y="316" on="1"/>
        <pt x="310" y="0" on="1"/>
        <pt x="241" y="0" on="1"/>
        <pt x="81" y="425" on="1"/>
        <pt x="75" y="427" on="1"/>
        <pt x="36" y="438" on="0"/>
        <pt x="7" y="457" on="0"/>
        <pt x="10" y="480" on="1"/>
        <pt x="163" y="480" on="1"/>
        <pt x="206" y="480" on="0"/>
        <pt x="235" y="468" on="0"/>
        <pt x="237" y="445" on="1"/>
        <pt x="153" y="424" on="1"/>
        <pt x="287" y="93" on="1"/>
        <pt x="269" y="45" on="1"/>
        <pt x="396" y="480" on="1"/>
        <pt x="435" y="480" on="1"/>
      </contour>
    </TTGlyph>
    <TTGlyph name="x" xMin="16" yMin="0" xMax="543" yMax="480">
      <contour>
        <pt x="543" y="35" on="1"/>
        <pt x="541" y="12" on="0"/>
        <pt x="512" y="0" on="0"/>
        <pt x="469" y="0" on="1"/>
        <pt x="316" y="0" on="1"/>
        <pt x="313" y="21" on="0"/>
        <pt x="338" y="40" on="0"/>
        <pt x="367" y="51" on="1"/>
        <pt x="369" y="52" on="0"/>
        <pt x="375" y="54" on="0"/>
        <pt x="377" y="55" on="1"/>
        <pt x="90" y="425" on="1"/>
        <pt x="84" y="427" on="1"/>
        <pt x="45" y="438" on="0"/>
        <pt x="16" y="457" on="0"/>
        <pt x="19" y="480" on="1"/>
        <pt x="182" y="480" on="1"/>
        <pt x="218" y="480" on="0"/>
        <pt x="244" y="468" on="0"/>
        <pt x="246" y="445" on="1"/>
        <pt x="187" y="426" on="1"/>
        <pt x="474" y="54" on="1"/>
      </contour>
      <contour>
        <pt x="266" y="265" on="1"/>
        <pt x="294" y="224" on="1"/>
        <pt x="170" y="56" on="1"/>
        <pt x="233" y="35" on="1"/>
        <pt x="231" y="12" on="0"/>
        <pt x="205" y="0" on="0"/>
        <pt x="169" y="0" on="1"/>
        <pt x="19" y="0" on="1"/>
        <pt x="16" y="23" on="0"/>
        <pt x="45" y="42" on="0"/>
        <pt x="84" y="54" on="1"/>
        <pt x="89" y="55" on="1"/>
      </contour>
      <contour>
        <pt x="389" y="425" on="1"/>
        <pt x="380" y="428" on="1"/>
        <pt x="351" y="438" on="0"/>
        <pt x="326" y="458" on="0"/>
        <pt x="329" y="480" on="1"/>
        <pt x="469" y="480" on="1"/>
        <pt x="512" y="480" on="0"/>
        <pt x="541" y="468" on="0"/>
        <pt x="543" y="445" on="1"/>
        <pt x="470" y="424" on="1"/>
        <pt x="282" y="218" on="1"/>
        <pt x="259" y="265" on="1"/>
      </contour>
    </TTGlyph>
    <TTGlyph name="y" xMin="8" yMin="-278" xMax="557" yMax="480">
      <contour>
        <pt x="173" y="480" on="1"/>
        <pt x="216" y="480" on="0"/>
        <pt x="245" y="468" on="0"/>
        <pt x="247" y="445" on="1"/>
        <pt x="173" y="424" on="1"/>
        <pt x="311" y="42" on="1"/>
        <pt x="281" y="42" on="1"/>
        <pt x="415" y="425" on="1"/>
        <pt x="395" y="431" on="1"/>
        <pt x="369" y="440" on="0"/>
        <pt x="347" y="460" on="0"/>
        <pt x="347" y="480" on="1"/>
        <pt x="483" y="480" on="1"/>
        <pt x="526" y="480" on="0"/>
        <pt x="555" y="468" on="0"/>
        <pt x="557" y="445" on="1"/>
        <pt x="488" y="424" on="1"/>
        <pt x="311" y="-18" on="1"/>
        <pt x="273" y="-113" on="0"/>
        <pt x="220" y="-215" on="0"/>
        <pt x="147" y="-278" on="0"/>
        <pt x="95" y="-278" on="1"/>
        <pt x="58" y="-278" on="0"/>
        <pt x="8" y="-237" on="0"/>
        <pt x="8" y="-199" on="1"/>
        <pt x="8" y="-189" on="0"/>
        <pt x="16" y="-171" on="0"/>
        <pt x="21" y="-171" on="1"/>
        <pt x="26" y="-171" on="0"/>
        <pt x="42" y="-180" on="1"/>
        <pt x="58" y="-189" on="0"/>
        <pt x="82" y="-199" on="0"/>
        <pt x="96" y="-199" on="1"/>
        <pt x="141" y="-199" on="0"/>
        <pt x="222" y="-96" on="0"/>
        <pt x="256" y="-12" on="1"/>
        <pt x="91" y="425" on="1"/>
        <pt x="85" y="427" on="1"/>
        <pt x="46" y="438" on="0"/>
        <pt x="17" y="457" on="0"/>
        <pt x="20" y="480" on="1"/>
      </contour>
    </TTGlyph>
    <TTGlyph name="z" xMin="20" yMin="-1" xMax="414" yMax="480">
      <contour>
        <pt x="383" y="141" on="1"/>
        <pt x="399" y="139" on="0"/>
        <pt x="414" y="126" on="0"/>
        <pt x="411" y="89" on="0"/>
        <pt x="398" y="54" on="1"/>
        <pt x="378" y="0" on="1"/>
        <pt x="340" y="0" on="1"/>
        <pt x="327" y="-1" on="0"/>
        <pt x="47" y="-1" on="1"/>
        <pt x="31" y="-1" on="0"/>
        <pt x="20" y="15" on="0"/>
        <pt x="28" y="26" on="1"/>
        <pt x="311" y="465" on="1"/>
        <pt x="295" y="430" on="1"/>
        <pt x="236" y="435" on="0"/>
        <pt x="137" y="430" on="0"/>
        <pt x="119" y="419" on="1"/>
        <pt x="105" y="410" on="0"/>
        <pt x="87" y="387" on="0"/>
        <pt x="77" y="368" on="1"/>
        <pt x="66" y="349" on="1"/>
        <pt x="45" y="351" on="0"/>
        <pt x="41" y="372" on="0"/>
        <pt x="48" y="408" on="1"/>
        <pt x="51" y="423" on="1"/>
        <pt x="62" y="480" on="1"/>
        <pt x="380" y="480" on="1"/>
        <pt x="393" y="480" on="0"/>
        <pt x="402" y="464" on="0"/>
        <pt x="394" y="453" on="1"/>
        <pt x="116" y="23" on="1"/>
        <pt x="130" y="58" on="1"/>
        <pt x="171" y="55" on="0"/>
        <pt x="249" y="55" on="0"/>
        <pt x="313" y="62" on="0"/>
        <pt x="329" y="69" on="1"/>
        <pt x="344" y="76" on="0"/>
        <pt x="363" y="103" on="0"/>
        <pt x="374" y="125" on="1"/>
      </contour>
    </TTGlyph>
</ttFont>
